<svg xmlns="http://www.w3.org/2000/svg" xmlns:xlink="http://www.w3.org/1999/xlink" contentStyleType="text/css" height="912px" preserveAspectRatio="none" style="width:2248px;height:912px;background:#FFFFFF;" version="1.1" viewBox="0 0 2248 912" width="2248px" zoomAndPan="magnify"><defs/><g><!--entity need--><g id="elem_need"><path d="M1511,70.5 L1511,250.4297 A2.5,2.5 0 0 0 1513.5,252.9297 L1680.1758,252.9297 A2.5,2.5 0 0 0 1682.6758,250.4297 L1682.6758,78 L1672.6758,68 L1513.5,68 A2.5,2.5 0 0 0 1511,70.5 " fill="none" style="stroke:#212121;stroke-width:0.5;"/><path d="M1672.6758,68 L1672.6758,75.5 A2.5,2.5 0 0 0 1675.1758,78 L1682.6758,78 " fill="none" style="stroke:#212121;stroke-width:0.5;"/><text fill="#212121" font-family="sans-serif" font-size="12" font-style="italic" lengthAdjust="spacing" textLength="65.3613" x="1564.1572" y="90.9492">&#171;Comment&#187;</text><text fill="#212121" font-family="sans-serif" font-size="14" lengthAdjust="spacing" textLength="109.6758" x="1542" y="109.0684">1.&#21019;&#24314;&#31649;&#29702;&#21592;&#29992;&#25143;</text><text fill="#212121" font-family="sans-serif" font-size="14" lengthAdjust="spacing" textLength="109.6758" x="1542" y="127.6895">2.&#31649;&#29702;&#21592;&#29992;&#25143;&#30331;&#24405;</text><text fill="#212121" font-family="sans-serif" font-size="14" lengthAdjust="spacing" textLength="123.6758" x="1535" y="146.3105">3.&#26356;&#26032;&#31649;&#29702;&#21592;&#29992;&#25143;&#38598;</text><text fill="#212121" font-family="sans-serif" font-size="14" lengthAdjust="spacing" textLength="137.6758" x="1528" y="164.9316">4.&#26356;&#26032;&#31649;&#29702;&#21592;&#35282;&#33394;&#20449;&#24687;</text><text fill="#212121" font-family="sans-serif" font-size="14" lengthAdjust="spacing" textLength="109.6758" x="1542" y="183.5527">5.&#26356;&#26032;&#31649;&#29702;&#21592;&#23494;&#30721;</text><text fill="#212121" font-family="sans-serif" font-size="14" lengthAdjust="spacing" textLength="137.6758" x="1528" y="202.1738">6.&#26356;&#26032;&#31649;&#29702;&#21592;&#21047;&#26032;&#20196;&#29260;</text><text fill="#212121" font-family="sans-serif" font-size="14" lengthAdjust="spacing" textLength="151.6758" x="1521" y="220.7949">7.&#26356;&#26032;&#31649;&#29702;&#21592;&#35282;&#33394;&#26435;&#38480;&#38598;</text><text fill="#212121" font-family="sans-serif" font-size="14" lengthAdjust="spacing" textLength="109.6758" x="1542" y="239.416">8.&#21024;&#38500;&#31649;&#29702;&#21592;&#24080;&#21495;</text></g><!--entity CreateAdminUser--><g id="elem_CreateAdminUser"><path d="M6,8.5 L6,312.1563 A2.5,2.5 0 0 0 8.5,314.6563 L185.0654,314.6563 A2.5,2.5 0 0 0 187.5654,312.1563 L187.5654,16 L177.5654,6 L8.5,6 A2.5,2.5 0 0 0 6,8.5 " fill="#AEC6CF" style="stroke:#212121;stroke-width:0.5;"/><path d="M177.5654,6 L177.5654,13.5 A2.5,2.5 0 0 0 180.0654,16 L187.5654,16 " fill="#AEC6CF" style="stroke:#212121;stroke-width:0.5;"/><text fill="#212121" font-family="sans-serif" font-size="12" font-style="italic" lengthAdjust="spacing" textLength="68.7012" x="62.4321" y="28.9492">&#171;Command&#187;</text><text fill="#212121" font-family="sans-serif" font-size="14" lengthAdjust="spacing" textLength="98" x="47.7827" y="47.0684">&#21019;&#24314;&#31649;&#29702;&#21592;&#29992;&#25143;</text><text fill="#212121" font-family="sans-serif" font-size="14" lengthAdjust="spacing" textLength="70" x="58.7827" y="84.3105">&#31649;&#29702;&#21592;&#29992;&#25143;</text><line style="stroke:#212121;stroke-width:1.0;" x1="7" x2="75.7827" y1="59.8926" y2="59.8926"/><text fill="#212121" font-family="sans-serif" font-size="14" lengthAdjust="spacing" textLength="42" x="75.7827" y="65.1895">&#35302;&#21457;&#32773;</text><line style="stroke:#212121;stroke-width:1.0;" x1="117.7827" x2="186.5654" y1="59.8926" y2="59.8926"/><text fill="#212121" font-family="sans-serif" font-size="14" lengthAdjust="spacing" textLength="28" x="79.7827" y="125.5527">&#21517;&#31216;</text><text fill="#212121" font-family="sans-serif" font-size="14" lengthAdjust="spacing" textLength="42" x="72.7827" y="144.1738">&#25163;&#26426;&#21495;</text><text fill="#212121" font-family="sans-serif" font-size="14" lengthAdjust="spacing" textLength="28" x="79.7827" y="162.7949">&#23494;&#30721;</text><text fill="#212121" font-family="sans-serif" font-size="14" lengthAdjust="spacing" textLength="42" x="72.7827" y="181.416">&#35282;&#33394;&#38598;</text><text fill="#212121" font-family="sans-serif" font-size="14" lengthAdjust="spacing" textLength="70" x="58.7827" y="200.0371">&#35282;&#33394;&#26435;&#38480;&#38598;</text><line style="stroke:#212121;stroke-width:1.0;" x1="7" x2="82.7827" y1="101.1348" y2="101.1348"/><text fill="#212121" font-family="sans-serif" font-size="14" lengthAdjust="spacing" textLength="28" x="82.7827" y="106.4316">&#23646;&#24615;</text><line style="stroke:#212121;stroke-width:1.0;" x1="110.7827" x2="186.5654" y1="101.1348" y2="101.1348"/><text fill="#212121" font-family="sans-serif" font-size="14" lengthAdjust="spacing" textLength="11.6758" x="16" y="241.2793">1.</text><text fill="#212121" font-family="sans-serif" font-size="14" lengthAdjust="spacing" textLength="3.8896" x="27.6758" y="241.2793">&#160;</text><text fill="#212121" font-family="sans-serif" font-size="14" lengthAdjust="spacing" textLength="140" x="31.5654" y="241.2793">&#31649;&#29702;&#21592;&#29992;&#25143;&#21517;&#19981;&#33021;&#20026;&#31354;</text><text fill="#212121" font-family="sans-serif" font-size="14" lengthAdjust="spacing" textLength="11.6758" x="37" y="259.9004">2.</text><text fill="#212121" font-family="sans-serif" font-size="14" lengthAdjust="spacing" textLength="3.8896" x="48.6758" y="259.9004">&#160;</text><text fill="#212121" font-family="sans-serif" font-size="14" lengthAdjust="spacing" textLength="98" x="52.5654" y="259.9004">&#25163;&#26426;&#21495;&#19981;&#33021;&#20026;&#31354;</text><text fill="#212121" font-family="sans-serif" font-size="14" lengthAdjust="spacing" textLength="11.6758" x="44" y="278.5215">3.</text><text fill="#212121" font-family="sans-serif" font-size="14" lengthAdjust="spacing" textLength="3.8896" x="55.6758" y="278.5215">&#160;</text><text fill="#212121" font-family="sans-serif" font-size="14" lengthAdjust="spacing" textLength="84" x="59.5654" y="278.5215">&#23494;&#30721;&#19981;&#33021;&#20026;&#31354;</text><text fill="#212121" font-family="sans-serif" font-size="14" lengthAdjust="spacing" textLength="11.6758" x="16" y="297.1426">4.</text><text fill="#212121" font-family="sans-serif" font-size="14" lengthAdjust="spacing" textLength="3.8896" x="27.6758" y="297.1426">&#160;</text><text fill="#212121" font-family="sans-serif" font-size="14" lengthAdjust="spacing" textLength="140" x="31.5654" y="297.1426">&#31649;&#29702;&#21592;&#29992;&#25143;&#21517;&#24517;&#39035;&#21807;&#19968;</text><line style="stroke:#212121;stroke-width:1.0;" x1="7" x2="82.7827" y1="216.8613" y2="216.8613"/><text fill="#212121" font-family="sans-serif" font-size="14" lengthAdjust="spacing" textLength="28" x="82.7827" y="222.1582">&#35268;&#21017;</text><line style="stroke:#212121;stroke-width:1.0;" x1="110.7827" x2="186.5654" y1="216.8613" y2="216.8613"/></g><!--entity UpdateAdminUserRoles--><g id="elem_UpdateAdminUserRoles"><path d="M223,64.5 L223,256.4297 A2.5,2.5 0 0 0 225.5,258.9297 L388.0654,258.9297 A2.5,2.5 0 0 0 390.5654,256.4297 L390.5654,72 L380.5654,62 L225.5,62 A2.5,2.5 0 0 0 223,64.5 " fill="#AEC6CF" style="stroke:#212121;stroke-width:0.5;"/><path d="M380.5654,62 L380.5654,69.5 A2.5,2.5 0 0 0 383.0654,72 L390.5654,72 " fill="#AEC6CF" style="stroke:#212121;stroke-width:0.5;"/><text fill="#212121" font-family="sans-serif" font-size="12" font-style="italic" lengthAdjust="spacing" textLength="68.7012" x="272.4321" y="84.9492">&#171;Command&#187;</text><text fill="#212121" font-family="sans-serif" font-size="14" lengthAdjust="spacing" textLength="112" x="250.7827" y="103.0684">&#26356;&#26032;&#31649;&#29702;&#21592;&#35282;&#33394;&#38598;</text><text fill="#212121" font-family="sans-serif" font-size="14" lengthAdjust="spacing" textLength="70" x="268.7827" y="140.3105">&#31649;&#29702;&#21592;&#29992;&#25143;</text><line style="stroke:#212121;stroke-width:1.0;" x1="224" x2="285.7827" y1="115.8926" y2="115.8926"/><text fill="#212121" font-family="sans-serif" font-size="14" lengthAdjust="spacing" textLength="42" x="285.7827" y="121.1895">&#35302;&#21457;&#32773;</text><line style="stroke:#212121;stroke-width:1.0;" x1="327.7827" x2="389.5654" y1="115.8926" y2="115.8926"/><text fill="#212121" font-family="sans-serif" font-size="14" lengthAdjust="spacing" textLength="42" x="282.7827" y="181.5527">&#29992;&#25143;ID</text><text fill="#212121" font-family="sans-serif" font-size="14" lengthAdjust="spacing" textLength="42" x="282.7827" y="200.1738">&#35282;&#33394;&#38598;</text><line style="stroke:#212121;stroke-width:1.0;" x1="224" x2="292.7827" y1="157.1348" y2="157.1348"/><text fill="#212121" font-family="sans-serif" font-size="14" lengthAdjust="spacing" textLength="28" x="292.7827" y="162.4316">&#23646;&#24615;</text><line style="stroke:#212121;stroke-width:1.0;" x1="320.7827" x2="389.5654" y1="157.1348" y2="157.1348"/><text fill="#212121" font-family="sans-serif" font-size="14" lengthAdjust="spacing" textLength="11.6758" x="233" y="241.416">1.</text><text fill="#212121" font-family="sans-serif" font-size="14" lengthAdjust="spacing" textLength="3.8896" x="244.6758" y="241.416">&#160;</text><text fill="#212121" font-family="sans-serif" font-size="14" lengthAdjust="spacing" textLength="126" x="248.5654" y="241.416">&#31649;&#29702;&#21592;&#29992;&#25143;&#24517;&#39035;&#23384;&#22312;</text><line style="stroke:#212121;stroke-width:1.0;" x1="224" x2="292.7827" y1="216.998" y2="216.998"/><text fill="#212121" font-family="sans-serif" font-size="14" lengthAdjust="spacing" textLength="28" x="292.7827" y="222.2949">&#35268;&#21017;</text><line style="stroke:#212121;stroke-width:1.0;" x1="320.7827" x2="389.5654" y1="216.998" y2="216.998"/></g><!--entity UpdateAdminUserRoleInfo--><g id="elem_UpdateAdminUserRoleInfo"><path d="M426,46 L426,275.1719 A2.5,2.5 0 0 0 428.5,277.6719 L591.0654,277.6719 A2.5,2.5 0 0 0 593.5654,275.1719 L593.5654,53.5 L583.5654,43.5 L428.5,43.5 A2.5,2.5 0 0 0 426,46 " fill="#AEC6CF" style="stroke:#212121;stroke-width:0.5;"/><path d="M583.5654,43.5 L583.5654,51 A2.5,2.5 0 0 0 586.0654,53.5 L593.5654,53.5 " fill="#AEC6CF" style="stroke:#212121;stroke-width:0.5;"/><text fill="#212121" font-family="sans-serif" font-size="12" font-style="italic" lengthAdjust="spacing" textLength="68.7012" x="475.4321" y="66.4492">&#171;Command&#187;</text><text fill="#212121" font-family="sans-serif" font-size="14" lengthAdjust="spacing" textLength="126" x="446.7827" y="84.5684">&#26356;&#26032;&#31649;&#29702;&#21592;&#35282;&#33394;&#20449;&#24687;</text><text fill="#212121" font-family="sans-serif" font-size="14" lengthAdjust="spacing" textLength="126" x="443.7827" y="121.8105">&#24050;&#26356;&#26032;&#35282;&#33394;&#20449;&#24687;&#20107;&#20214;</text><line style="stroke:#212121;stroke-width:1.0;" x1="427" x2="488.7827" y1="97.3926" y2="97.3926"/><text fill="#212121" font-family="sans-serif" font-size="14" lengthAdjust="spacing" textLength="42" x="488.7827" y="102.6895">&#35302;&#21457;&#32773;</text><line style="stroke:#212121;stroke-width:1.0;" x1="530.7827" x2="592.5654" y1="97.3926" y2="97.3926"/><text fill="#212121" font-family="sans-serif" font-size="14" lengthAdjust="spacing" textLength="42" x="485.7827" y="163.0527">&#29992;&#25143;ID</text><text fill="#212121" font-family="sans-serif" font-size="14" lengthAdjust="spacing" textLength="42" x="485.7827" y="181.6738">&#35282;&#33394;ID</text><text fill="#212121" font-family="sans-serif" font-size="14" lengthAdjust="spacing" textLength="42" x="485.7827" y="200.2949">&#35282;&#33394;&#21517;</text><line style="stroke:#212121;stroke-width:1.0;" x1="427" x2="495.7827" y1="138.6348" y2="138.6348"/><text fill="#212121" font-family="sans-serif" font-size="14" lengthAdjust="spacing" textLength="28" x="495.7827" y="143.9316">&#23646;&#24615;</text><line style="stroke:#212121;stroke-width:1.0;" x1="523.7827" x2="592.5654" y1="138.6348" y2="138.6348"/><text fill="#212121" font-family="sans-serif" font-size="14" lengthAdjust="spacing" textLength="11.6758" x="436" y="241.5371">1.</text><text fill="#212121" font-family="sans-serif" font-size="14" lengthAdjust="spacing" textLength="3.8896" x="447.6758" y="241.5371">&#160;</text><text fill="#212121" font-family="sans-serif" font-size="14" lengthAdjust="spacing" textLength="126" x="451.5654" y="241.5371">&#31649;&#29702;&#21592;&#29992;&#25143;&#24517;&#39035;&#23384;&#22312;</text><text fill="#212121" font-family="sans-serif" font-size="14" lengthAdjust="spacing" textLength="11.6758" x="457" y="260.1582">2.</text><text fill="#212121" font-family="sans-serif" font-size="14" lengthAdjust="spacing" textLength="3.8896" x="468.6758" y="260.1582">&#160;</text><text fill="#212121" font-family="sans-serif" font-size="14" lengthAdjust="spacing" textLength="84" x="472.5654" y="260.1582">&#35282;&#33394;&#24517;&#39035;&#23384;&#22312;</text><line style="stroke:#212121;stroke-width:1.0;" x1="427" x2="495.7827" y1="217.1191" y2="217.1191"/><text fill="#212121" font-family="sans-serif" font-size="14" lengthAdjust="spacing" textLength="28" x="495.7827" y="222.416">&#35268;&#21017;</text><line style="stroke:#212121;stroke-width:1.0;" x1="523.7827" x2="592.5654" y1="217.1191" y2="217.1191"/></g><!--entity UpdateAdminUserPassword--><g id="elem_UpdateAdminUserPassword"><path d="M629,55 L629,265.5508 A2.5,2.5 0 0 0 631.5,268.0508 L822.0654,268.0508 A2.5,2.5 0 0 0 824.5654,265.5508 L824.5654,62.5 L814.5654,52.5 L631.5,52.5 A2.5,2.5 0 0 0 629,55 " fill="#AEC6CF" style="stroke:#212121;stroke-width:0.5;"/><path d="M814.5654,52.5 L814.5654,60 A2.5,2.5 0 0 0 817.0654,62.5 L824.5654,62.5 " fill="#AEC6CF" style="stroke:#212121;stroke-width:0.5;"/><text fill="#212121" font-family="sans-serif" font-size="12" font-style="italic" lengthAdjust="spacing" textLength="68.7012" x="692.4321" y="75.4492">&#171;Command&#187;</text><text fill="#212121" font-family="sans-serif" font-size="14" lengthAdjust="spacing" textLength="98" x="677.7827" y="93.5684">&#26356;&#26032;&#31649;&#29702;&#21592;&#23494;&#30721;</text><text fill="#212121" font-family="sans-serif" font-size="14" lengthAdjust="spacing" textLength="70" x="688.7827" y="130.8105">&#31649;&#29702;&#21592;&#29992;&#25143;</text><line style="stroke:#212121;stroke-width:1.0;" x1="630" x2="705.7827" y1="106.3926" y2="106.3926"/><text fill="#212121" font-family="sans-serif" font-size="14" lengthAdjust="spacing" textLength="42" x="705.7827" y="111.6895">&#35302;&#21457;&#32773;</text><line style="stroke:#212121;stroke-width:1.0;" x1="747.7827" x2="823.5654" y1="106.3926" y2="106.3926"/><text fill="#212121" font-family="sans-serif" font-size="14" lengthAdjust="spacing" textLength="42" x="702.7827" y="172.0527">&#29992;&#25143;ID</text><text fill="#212121" font-family="sans-serif" font-size="14" lengthAdjust="spacing" textLength="42" x="702.7827" y="190.6738">&#26032;&#23494;&#30721;</text><line style="stroke:#212121;stroke-width:1.0;" x1="630" x2="712.7827" y1="147.6348" y2="147.6348"/><text fill="#212121" font-family="sans-serif" font-size="14" lengthAdjust="spacing" textLength="28" x="712.7827" y="152.9316">&#23646;&#24615;</text><line style="stroke:#212121;stroke-width:1.0;" x1="740.7827" x2="823.5654" y1="147.6348" y2="147.6348"/><text fill="#212121" font-family="sans-serif" font-size="14" lengthAdjust="spacing" textLength="11.6758" x="653" y="231.916">1.</text><text fill="#212121" font-family="sans-serif" font-size="14" lengthAdjust="spacing" textLength="3.8896" x="664.6758" y="231.916">&#160;</text><text fill="#212121" font-family="sans-serif" font-size="14" lengthAdjust="spacing" textLength="126" x="668.5654" y="231.916">&#31649;&#29702;&#21592;&#29992;&#25143;&#24517;&#39035;&#23384;&#22312;</text><text fill="#212121" font-family="sans-serif" font-size="14" lengthAdjust="spacing" textLength="11.6758" x="639" y="250.5371">2.</text><text fill="#212121" font-family="sans-serif" font-size="14" lengthAdjust="spacing" textLength="3.8896" x="650.6758" y="250.5371">&#160;</text><text fill="#212121" font-family="sans-serif" font-size="14" lengthAdjust="spacing" textLength="154" x="654.5654" y="250.5371">&#26032;&#23494;&#30721;&#24517;&#39035;&#19982;&#26087;&#23494;&#30721;&#19981;&#21516;</text><line style="stroke:#212121;stroke-width:1.0;" x1="630" x2="712.7827" y1="207.498" y2="207.498"/><text fill="#212121" font-family="sans-serif" font-size="14" lengthAdjust="spacing" textLength="28" x="712.7827" y="212.7949">&#35268;&#21017;</text><line style="stroke:#212121;stroke-width:1.0;" x1="740.7827" x2="823.5654" y1="207.498" y2="207.498"/></g><!--entity UpdateAdminUserRefreshToken--><g id="elem_UpdateAdminUserRefreshToken"><path d="M860,64.5 L860,256.4297 A2.5,2.5 0 0 0 862.5,258.9297 L1025.0654,258.9297 A2.5,2.5 0 0 0 1027.5654,256.4297 L1027.5654,72 L1017.5654,62 L862.5,62 A2.5,2.5 0 0 0 860,64.5 " fill="#AEC6CF" style="stroke:#212121;stroke-width:0.5;"/><path d="M1017.5654,62 L1017.5654,69.5 A2.5,2.5 0 0 0 1020.0654,72 L1027.5654,72 " fill="#AEC6CF" style="stroke:#212121;stroke-width:0.5;"/><text fill="#212121" font-family="sans-serif" font-size="12" font-style="italic" lengthAdjust="spacing" textLength="68.7012" x="909.4321" y="84.9492">&#171;Command&#187;</text><text fill="#212121" font-family="sans-serif" font-size="14" lengthAdjust="spacing" textLength="126" x="880.7827" y="103.0684">&#26356;&#26032;&#31649;&#29702;&#21592;&#21047;&#26032;&#20196;&#29260;</text><text fill="#212121" font-family="sans-serif" font-size="14" lengthAdjust="spacing" textLength="56" x="912.7827" y="140.3105">&#33258;&#21160;&#35302;&#21457;</text><line style="stroke:#212121;stroke-width:1.0;" x1="861" x2="922.7827" y1="115.8926" y2="115.8926"/><text fill="#212121" font-family="sans-serif" font-size="14" lengthAdjust="spacing" textLength="42" x="922.7827" y="121.1895">&#35302;&#21457;&#32773;</text><line style="stroke:#212121;stroke-width:1.0;" x1="964.7827" x2="1026.5654" y1="115.8926" y2="115.8926"/><text fill="#212121" font-family="sans-serif" font-size="14" lengthAdjust="spacing" textLength="42" x="919.7827" y="181.5527">&#29992;&#25143;ID</text><text fill="#212121" font-family="sans-serif" font-size="14" lengthAdjust="spacing" textLength="56" x="912.7827" y="200.1738">&#21047;&#26032;&#20196;&#29260;</text><line style="stroke:#212121;stroke-width:1.0;" x1="861" x2="929.7827" y1="157.1348" y2="157.1348"/><text fill="#212121" font-family="sans-serif" font-size="14" lengthAdjust="spacing" textLength="28" x="929.7827" y="162.4316">&#23646;&#24615;</text><line style="stroke:#212121;stroke-width:1.0;" x1="957.7827" x2="1026.5654" y1="157.1348" y2="157.1348"/><text fill="#212121" font-family="sans-serif" font-size="14" lengthAdjust="spacing" textLength="11.6758" x="870" y="241.416">1.</text><text fill="#212121" font-family="sans-serif" font-size="14" lengthAdjust="spacing" textLength="3.8896" x="881.6758" y="241.416">&#160;</text><text fill="#212121" font-family="sans-serif" font-size="14" lengthAdjust="spacing" textLength="126" x="885.5654" y="241.416">&#31649;&#29702;&#21592;&#29992;&#25143;&#24517;&#39035;&#23384;&#22312;</text><line style="stroke:#212121;stroke-width:1.0;" x1="861" x2="929.7827" y1="216.998" y2="216.998"/><text fill="#212121" font-family="sans-serif" font-size="14" lengthAdjust="spacing" textLength="28" x="929.7827" y="222.2949">&#35268;&#21017;</text><line style="stroke:#212121;stroke-width:1.0;" x1="957.7827" x2="1026.5654" y1="216.998" y2="216.998"/></g><!--entity UpdateAdminUserRolePermissions--><g id="elem_UpdateAdminUserRolePermissions"><path d="M1063,46 L1063,275.1719 A2.5,2.5 0 0 0 1065.5,277.6719 L1228.0654,277.6719 A2.5,2.5 0 0 0 1230.5654,275.1719 L1230.5654,53.5 L1220.5654,43.5 L1065.5,43.5 A2.5,2.5 0 0 0 1063,46 " fill="#AEC6CF" style="stroke:#212121;stroke-width:0.5;"/><path d="M1220.5654,43.5 L1220.5654,51 A2.5,2.5 0 0 0 1223.0654,53.5 L1230.5654,53.5 " fill="#AEC6CF" style="stroke:#212121;stroke-width:0.5;"/><text fill="#212121" font-family="sans-serif" font-size="12" font-style="italic" lengthAdjust="spacing" textLength="68.7012" x="1112.4321" y="66.4492">&#171;Command&#187;</text><text fill="#212121" font-family="sans-serif" font-size="14" lengthAdjust="spacing" textLength="140" x="1076.7827" y="84.5684">&#26356;&#26032;&#31649;&#29702;&#21592;&#35282;&#33394;&#26435;&#38480;&#38598;</text><text fill="#212121" font-family="sans-serif" font-size="14" lengthAdjust="spacing" textLength="140" x="1073.7827" y="121.8105">&#24050;&#26356;&#26032;&#35282;&#33394;&#26435;&#38480;&#38598;&#20107;&#20214;</text><line style="stroke:#212121;stroke-width:1.0;" x1="1064" x2="1125.7827" y1="97.3926" y2="97.3926"/><text fill="#212121" font-family="sans-serif" font-size="14" lengthAdjust="spacing" textLength="42" x="1125.7827" y="102.6895">&#35302;&#21457;&#32773;</text><line style="stroke:#212121;stroke-width:1.0;" x1="1167.7827" x2="1229.5654" y1="97.3926" y2="97.3926"/><text fill="#212121" font-family="sans-serif" font-size="14" lengthAdjust="spacing" textLength="42" x="1122.7827" y="163.0527">&#29992;&#25143;ID</text><text fill="#212121" font-family="sans-serif" font-size="14" lengthAdjust="spacing" textLength="42" x="1122.7827" y="181.6738">&#35282;&#33394;ID</text><text fill="#212121" font-family="sans-serif" font-size="14" lengthAdjust="spacing" textLength="42" x="1122.7827" y="200.2949">&#26435;&#38480;&#38598;</text><line style="stroke:#212121;stroke-width:1.0;" x1="1064" x2="1132.7827" y1="138.6348" y2="138.6348"/><text fill="#212121" font-family="sans-serif" font-size="14" lengthAdjust="spacing" textLength="28" x="1132.7827" y="143.9316">&#23646;&#24615;</text><line style="stroke:#212121;stroke-width:1.0;" x1="1160.7827" x2="1229.5654" y1="138.6348" y2="138.6348"/><text fill="#212121" font-family="sans-serif" font-size="14" lengthAdjust="spacing" textLength="11.6758" x="1073" y="241.5371">1.</text><text fill="#212121" font-family="sans-serif" font-size="14" lengthAdjust="spacing" textLength="3.8896" x="1084.6758" y="241.5371">&#160;</text><text fill="#212121" font-family="sans-serif" font-size="14" lengthAdjust="spacing" textLength="126" x="1088.5654" y="241.5371">&#31649;&#29702;&#21592;&#29992;&#25143;&#24517;&#39035;&#23384;&#22312;</text><text fill="#212121" font-family="sans-serif" font-size="14" lengthAdjust="spacing" textLength="11.6758" x="1094" y="260.1582">2.</text><text fill="#212121" font-family="sans-serif" font-size="14" lengthAdjust="spacing" textLength="3.8896" x="1105.6758" y="260.1582">&#160;</text><text fill="#212121" font-family="sans-serif" font-size="14" lengthAdjust="spacing" textLength="84" x="1109.5654" y="260.1582">&#35282;&#33394;&#24517;&#39035;&#23384;&#22312;</text><line style="stroke:#212121;stroke-width:1.0;" x1="1064" x2="1132.7827" y1="217.1191" y2="217.1191"/><text fill="#212121" font-family="sans-serif" font-size="14" lengthAdjust="spacing" textLength="28" x="1132.7827" y="222.416">&#35268;&#21017;</text><line style="stroke:#212121;stroke-width:1.0;" x1="1160.7827" x2="1229.5654" y1="217.1191" y2="217.1191"/></g><!--entity DeleteAdminUser--><g id="elem_DeleteAdminUser"><path d="M1266,64.5 L1266,256.4297 A2.5,2.5 0 0 0 1268.5,258.9297 L1473.0654,258.9297 A2.5,2.5 0 0 0 1475.5654,256.4297 L1475.5654,72 L1465.5654,62 L1268.5,62 A2.5,2.5 0 0 0 1266,64.5 " fill="#AEC6CF" style="stroke:#212121;stroke-width:0.5;"/><path d="M1465.5654,62 L1465.5654,69.5 A2.5,2.5 0 0 0 1468.0654,72 L1475.5654,72 " fill="#AEC6CF" style="stroke:#212121;stroke-width:0.5;"/><text fill="#212121" font-family="sans-serif" font-size="12" font-style="italic" lengthAdjust="spacing" textLength="68.7012" x="1336.4321" y="84.9492">&#171;Command&#187;</text><text fill="#212121" font-family="sans-serif" font-size="14" lengthAdjust="spacing" textLength="98" x="1321.7827" y="103.0684">&#21024;&#38500;&#31649;&#29702;&#21592;&#24080;&#21495;</text><text fill="#212121" font-family="sans-serif" font-size="14" lengthAdjust="spacing" textLength="70" x="1332.7827" y="140.3105">&#31649;&#29702;&#21592;&#29992;&#25143;</text><line style="stroke:#212121;stroke-width:1.0;" x1="1267" x2="1349.7827" y1="115.8926" y2="115.8926"/><text fill="#212121" font-family="sans-serif" font-size="14" lengthAdjust="spacing" textLength="42" x="1349.7827" y="121.1895">&#35302;&#21457;&#32773;</text><line style="stroke:#212121;stroke-width:1.0;" x1="1391.7827" x2="1474.5654" y1="115.8926" y2="115.8926"/><text fill="#212121" font-family="sans-serif" font-size="14" lengthAdjust="spacing" textLength="42" x="1346.7827" y="181.5527">&#29992;&#25143;ID</text><line style="stroke:#212121;stroke-width:1.0;" x1="1267" x2="1356.7827" y1="157.1348" y2="157.1348"/><text fill="#212121" font-family="sans-serif" font-size="14" lengthAdjust="spacing" textLength="28" x="1356.7827" y="162.4316">&#23646;&#24615;</text><line style="stroke:#212121;stroke-width:1.0;" x1="1384.7827" x2="1474.5654" y1="157.1348" y2="157.1348"/><text fill="#212121" font-family="sans-serif" font-size="14" lengthAdjust="spacing" textLength="11.6758" x="1297" y="222.7949">1.</text><text fill="#212121" font-family="sans-serif" font-size="14" lengthAdjust="spacing" textLength="3.8896" x="1308.6758" y="222.7949">&#160;</text><text fill="#212121" font-family="sans-serif" font-size="14" lengthAdjust="spacing" textLength="126" x="1312.5654" y="222.7949">&#31649;&#29702;&#21592;&#29992;&#25143;&#24517;&#39035;&#23384;&#22312;</text><text fill="#212121" font-family="sans-serif" font-size="14" lengthAdjust="spacing" textLength="11.6758" x="1276" y="241.416">2.</text><text fill="#212121" font-family="sans-serif" font-size="14" lengthAdjust="spacing" textLength="3.8896" x="1287.6758" y="241.416">&#160;</text><text fill="#212121" font-family="sans-serif" font-size="14" lengthAdjust="spacing" textLength="168" x="1291.5654" y="241.416">&#31649;&#29702;&#21592;&#29992;&#25143;&#19981;&#33021;&#20026;&#40664;&#35748;&#29992;&#25143;</text><line style="stroke:#212121;stroke-width:1.0;" x1="1267" x2="1356.7827" y1="198.377" y2="198.377"/><text fill="#212121" font-family="sans-serif" font-size="14" lengthAdjust="spacing" textLength="28" x="1356.7827" y="203.6738">&#35268;&#21017;</text><line style="stroke:#212121;stroke-width:1.0;" x1="1384.7827" x2="1474.5654" y1="198.377" y2="198.377"/></g><!--entity AdminUser--><g id="elem_AdminUser"><path d="M666.5,377.5 L666.5,788.8828 A2.5,2.5 0 0 0 669,791.3828 L784.9102,791.3828 A2.5,2.5 0 0 0 787.4102,788.8828 L787.4102,385 L777.4102,375 L669,375 A2.5,2.5 0 0 0 666.5,377.5 " fill="#FDFD9D" style="stroke:#212121;stroke-width:0.5;"/><path d="M777.4102,375 L777.4102,382.5 A2.5,2.5 0 0 0 779.9102,385 L787.4102,385 " fill="#FDFD9D" style="stroke:#212121;stroke-width:0.5;"/><text fill="#212121" font-family="sans-serif" font-size="12" font-style="italic" lengthAdjust="spacing" textLength="68.7246" x="692.5928" y="397.9492">&#171;Aggregate&#187;</text><text fill="#212121" font-family="sans-serif" font-size="14" lengthAdjust="spacing" textLength="42" x="705.9551" y="416.0684">&#31649;&#29702;&#21592;</text><text fill="#212121" font-family="sans-serif" font-size="14" lengthAdjust="spacing" textLength="56" x="695.9551" y="453.3105">&#31649;&#29702;&#21592;ID</text><text fill="#212121" font-family="sans-serif" font-size="14" lengthAdjust="spacing" textLength="28" x="709.9551" y="471.9316">&#21517;&#31216;</text><text fill="#212121" font-family="sans-serif" font-size="14" lengthAdjust="spacing" textLength="42" x="702.9551" y="490.5527">&#25163;&#26426;&#21495;</text><text fill="#212121" font-family="sans-serif" font-size="14" lengthAdjust="spacing" textLength="28" x="709.9551" y="509.1738">&#23494;&#30721;</text><text fill="#212121" font-family="sans-serif" font-size="14" lengthAdjust="spacing" textLength="56" x="695.9551" y="527.7949">&#21047;&#26032;&#20196;&#29260;</text><text fill="#212121" font-family="sans-serif" font-size="14" lengthAdjust="spacing" textLength="56" x="695.9551" y="546.416">&#21019;&#24314;&#26102;&#38388;</text><text fill="#212121" font-family="sans-serif" font-size="14" lengthAdjust="spacing" textLength="42" x="702.9551" y="565.0371">&#26435;&#38480;&#38598;</text><text fill="#212121" font-family="sans-serif" font-size="14" lengthAdjust="spacing" textLength="42" x="702.9551" y="583.6582">&#35282;&#33394;&#38598;</text><line style="stroke:#212121;stroke-width:1.0;" x1="667.5" x2="712.9551" y1="428.8926" y2="428.8926"/><text fill="#212121" font-family="sans-serif" font-size="14" lengthAdjust="spacing" textLength="28" x="712.9551" y="434.1895">&#23646;&#24615;</text><line style="stroke:#212121;stroke-width:1.0;" x1="740.9551" x2="786.4102" y1="428.8926" y2="428.8926"/><text fill="#212121" font-family="sans-serif" font-size="14" lengthAdjust="spacing" textLength="56" x="695.9551" y="624.9004">&#26356;&#26032;&#23494;&#30721;</text><text fill="#212121" font-family="sans-serif" font-size="14" lengthAdjust="spacing" textLength="84" x="681.9551" y="643.5215">&#26356;&#26032;&#35282;&#33394;&#20449;&#24687;</text><text fill="#212121" font-family="sans-serif" font-size="14" lengthAdjust="spacing" textLength="70" x="688.9551" y="662.1426">&#26356;&#26032;&#35282;&#33394;&#38598;</text><text fill="#212121" font-family="sans-serif" font-size="14" lengthAdjust="spacing" textLength="70" x="688.9551" y="680.7637">&#28155;&#21152;&#26435;&#38480;&#38598;</text><text fill="#212121" font-family="sans-serif" font-size="14" lengthAdjust="spacing" textLength="56" x="695.9551" y="699.3848">&#31227;&#38500;&#26435;&#38480;</text><text fill="#212121" font-family="sans-serif" font-size="14" lengthAdjust="spacing" textLength="84" x="681.9551" y="718.0059">&#26032;&#22686;&#29305;&#23450;&#26435;&#38480;</text><text fill="#212121" font-family="sans-serif" font-size="14" lengthAdjust="spacing" textLength="70" x="688.9551" y="736.627">&#21024;&#38500;&#31649;&#29702;&#21592;</text><text fill="#212121" font-family="sans-serif" font-size="14" lengthAdjust="spacing" textLength="84" x="681.9551" y="755.248">&#26159;&#21542;&#26377;&#26576;&#35282;&#33394;</text><text fill="#212121" font-family="sans-serif" font-size="14" lengthAdjust="spacing" textLength="94.9102" x="676.5" y="773.8691">&#26356;&#26032;&#21047;&#26032;Token</text><line style="stroke:#212121;stroke-width:1.0;" x1="667.5" x2="712.9551" y1="600.4824" y2="600.4824"/><text fill="#212121" font-family="sans-serif" font-size="14" lengthAdjust="spacing" textLength="28" x="712.9551" y="605.7793">&#34892;&#20026;</text><line style="stroke:#212121;stroke-width:1.0;" x1="740.9551" x2="786.4102" y1="600.4824" y2="600.4824"/></g><!--entity AdminUserRole--><g id="elem_AdminUserRole"><path d="M1047,498.5 L1047,667.8086 A2.5,2.5 0 0 0 1049.5,670.3086 L1154.5,670.3086 A2.5,2.5 0 0 0 1157,667.8086 L1157,506 L1147,496 L1049.5,496 A2.5,2.5 0 0 0 1047,498.5 " fill="#FDFD9D" style="stroke:#212121;stroke-width:0.5;"/><path d="M1147,496 L1147,503.5 A2.5,2.5 0 0 0 1149.5,506 L1157,506 " fill="#FDFD9D" style="stroke:#212121;stroke-width:0.5;"/><text fill="#212121" font-family="sans-serif" font-size="12" font-style="italic" lengthAdjust="spacing" textLength="68.7246" x="1067.6377" y="518.9492">&#171;Aggregate&#187;</text><text fill="#212121" font-family="sans-serif" font-size="14" lengthAdjust="spacing" textLength="70" x="1067" y="537.0684">&#31649;&#29702;&#21592;&#35282;&#33394;</text><text fill="#212121" font-family="sans-serif" font-size="14" lengthAdjust="spacing" textLength="56" x="1071" y="574.3105">&#31649;&#29702;&#21592;ID</text><text fill="#212121" font-family="sans-serif" font-size="14" lengthAdjust="spacing" textLength="42" x="1078" y="592.9316">&#35282;&#33394;ID</text><text fill="#212121" font-family="sans-serif" font-size="14" lengthAdjust="spacing" textLength="56" x="1071" y="611.5527">&#35282;&#33394;&#21517;&#31216;</text><line style="stroke:#212121;stroke-width:1.0;" x1="1048" x2="1088" y1="549.8926" y2="549.8926"/><text fill="#212121" font-family="sans-serif" font-size="14" lengthAdjust="spacing" textLength="28" x="1088" y="555.1895">&#23646;&#24615;</text><line style="stroke:#212121;stroke-width:1.0;" x1="1116" x2="1156" y1="549.8926" y2="549.8926"/><text fill="#212121" font-family="sans-serif" font-size="14" lengthAdjust="spacing" textLength="84" x="1057" y="652.7949">&#26356;&#26032;&#35282;&#33394;&#20449;&#24687;</text><line style="stroke:#212121;stroke-width:1.0;" x1="1048" x2="1088" y1="628.377" y2="628.377"/><text fill="#212121" font-family="sans-serif" font-size="14" lengthAdjust="spacing" textLength="28" x="1088" y="633.6738">&#34892;&#20026;</text><line style="stroke:#212121;stroke-width:1.0;" x1="1116" x2="1156" y1="628.377" y2="628.377"/></g><!--entity AdminUserPermission--><g id="elem_AdminUserPermission"><path d="M822.5,489 L822.5,676.9297 A2.5,2.5 0 0 0 825,679.4297 L1009.3242,679.4297 A2.5,2.5 0 0 0 1011.8242,676.9297 L1011.8242,496.5 L1001.8242,486.5 L825,486.5 A2.5,2.5 0 0 0 822.5,489 " fill="#FDFD9D" style="stroke:#212121;stroke-width:0.5;"/><path d="M1001.8242,486.5 L1001.8242,494 A2.5,2.5 0 0 0 1004.3242,496.5 L1011.8242,496.5 " fill="#FDFD9D" style="stroke:#212121;stroke-width:0.5;"/><text fill="#212121" font-family="sans-serif" font-size="12" font-style="italic" lengthAdjust="spacing" textLength="68.7246" x="882.7998" y="509.4492">&#171;Aggregate&#187;</text><text fill="#212121" font-family="sans-serif" font-size="14" lengthAdjust="spacing" textLength="70" x="882.1621" y="527.5684">&#31649;&#29702;&#21592;&#26435;&#38480;</text><text fill="#212121" font-family="sans-serif" font-size="14" lengthAdjust="spacing" textLength="56" x="886.1621" y="564.8105">&#31649;&#29702;&#21592;ID</text><text fill="#212121" font-family="sans-serif" font-size="14" lengthAdjust="spacing" textLength="42" x="893.1621" y="583.4316">&#26435;&#38480;&#30721;</text><text fill="#212121" font-family="sans-serif" font-size="14" lengthAdjust="spacing" textLength="56" x="886.1621" y="602.0527">&#26435;&#38480;&#22791;&#27880;</text><text fill="#212121" font-family="sans-serif" font-size="14" lengthAdjust="spacing" textLength="163.3242" x="832.5" y="620.6738">&#28304;&#35282;&#33394;ID&#38598;(&#19981;&#36827;&#34892;&#25345;&#20037;&#21270;)</text><line style="stroke:#212121;stroke-width:1.0;" x1="823.5" x2="903.1621" y1="540.3926" y2="540.3926"/><text fill="#212121" font-family="sans-serif" font-size="14" lengthAdjust="spacing" textLength="28" x="903.1621" y="545.6895">&#23646;&#24615;</text><line style="stroke:#212121;stroke-width:1.0;" x1="931.1621" x2="1010.8242" y1="540.3926" y2="540.3926"/><text fill="#212121" font-family="sans-serif" font-size="14" lengthAdjust="spacing" textLength="84" x="872.1621" y="661.916">&#28155;&#21152;&#28304;&#35282;&#33394;ID</text><line style="stroke:#212121;stroke-width:1.0;" x1="823.5" x2="903.1621" y1="637.498" y2="637.498"/><text fill="#212121" font-family="sans-serif" font-size="14" lengthAdjust="spacing" textLength="28" x="903.1621" y="642.7949">&#34892;&#20026;</text><line style="stroke:#212121;stroke-width:1.0;" x1="931.1621" x2="1010.8242" y1="637.498" y2="637.498"/></g><!--entity AdminUserExistsByName--><g id="elem_AdminUserExistsByName"><path d="M1718,115 L1718,205.8242 A2.5,2.5 0 0 0 1720.5,208.3242 L1959.5,208.3242 A2.5,2.5 0 0 0 1962,205.8242 L1962,122.5 L1952,112.5 L1720.5,112.5 A2.5,2.5 0 0 0 1718,115 " fill="#62D862" style="stroke:#212121;stroke-width:0.5;"/><path d="M1952,112.5 L1952,120 A2.5,2.5 0 0 0 1954.5,122.5 L1962,122.5 " fill="#62D862" style="stroke:#212121;stroke-width:0.5;"/><text fill="#212121" font-family="sans-serif" font-size="12" font-style="italic" lengthAdjust="spacing" textLength="46.0254" x="1816.9873" y="135.4492">&#171;Query&#187;</text><text fill="#212121" font-family="sans-serif" font-size="14" lengthAdjust="spacing" textLength="224" x="1728" y="153.5684">&#26681;&#25454;&#29992;&#25143;&#21517;&#21028;&#26029;&#31649;&#29702;&#21592;&#29992;&#25143;&#26159;&#21542;&#23384;&#22312;</text><text fill="#212121" font-family="sans-serif" font-size="14" lengthAdjust="spacing" textLength="42" x="1816" y="190.8105">&#29992;&#25143;&#21517;</text><line style="stroke:#212121;stroke-width:1.0;" x1="1719" x2="1826" y1="166.3926" y2="166.3926"/><text fill="#212121" font-family="sans-serif" font-size="14" lengthAdjust="spacing" textLength="28" x="1826" y="171.6895">&#23646;&#24615;</text><line style="stroke:#212121;stroke-width:1.0;" x1="1854" x2="1961" y1="166.3926" y2="166.3926"/></g><!--entity AdminUserExistsByRoleId--><g id="elem_AdminUserExistsByRoleId"><path d="M1997,115 L1997,205.8242 A2.5,2.5 0 0 0 1999.5,208.3242 L2238.5,208.3242 A2.5,2.5 0 0 0 2241,205.8242 L2241,122.5 L2231,112.5 L1999.5,112.5 A2.5,2.5 0 0 0 1997,115 " fill="#62D862" style="stroke:#212121;stroke-width:0.5;"/><path d="M2231,112.5 L2231,120 A2.5,2.5 0 0 0 2233.5,122.5 L2241,122.5 " fill="#62D862" style="stroke:#212121;stroke-width:0.5;"/><text fill="#212121" font-family="sans-serif" font-size="12" font-style="italic" lengthAdjust="spacing" textLength="46.0254" x="2095.9873" y="135.4492">&#171;Query&#187;</text><text fill="#212121" font-family="sans-serif" font-size="14" lengthAdjust="spacing" textLength="224" x="2007" y="153.5684">&#26681;&#25454;&#35282;&#33394;ID&#21028;&#26029;&#31649;&#29702;&#21592;&#29992;&#25143;&#26159;&#21542;&#23384;&#22312;</text><text fill="#212121" font-family="sans-serif" font-size="14" lengthAdjust="spacing" textLength="42" x="2095" y="190.8105">&#35282;&#33394;ID</text><line style="stroke:#212121;stroke-width:1.0;" x1="1998" x2="2105" y1="166.3926" y2="166.3926"/><text fill="#212121" font-family="sans-serif" font-size="14" lengthAdjust="spacing" textLength="28" x="2105" y="171.6895">&#23646;&#24615;</text><line style="stroke:#212121;stroke-width:1.0;" x1="2133" x2="2240" y1="166.3926" y2="166.3926"/></g><!--entity GetAdminUserById--><g id="elem_GetAdminUserById"><path d="M1503,537.5 L1503,628.3242 A2.5,2.5 0 0 0 1505.5,630.8242 L1688.5,630.8242 A2.5,2.5 0 0 0 1691,628.3242 L1691,545 L1681,535 L1505.5,535 A2.5,2.5 0 0 0 1503,537.5 " fill="#62D862" style="stroke:#212121;stroke-width:0.5;"/><path d="M1681,535 L1681,542.5 A2.5,2.5 0 0 0 1683.5,545 L1691,545 " fill="#62D862" style="stroke:#212121;stroke-width:0.5;"/><text fill="#212121" font-family="sans-serif" font-size="12" font-style="italic" lengthAdjust="spacing" textLength="46.0254" x="1573.9873" y="557.9492">&#171;Query&#187;</text><text fill="#212121" font-family="sans-serif" font-size="14" lengthAdjust="spacing" textLength="168" x="1513" y="576.0684">&#26681;&#25454;&#29992;&#25143;ID&#33719;&#21462;&#31649;&#29702;&#21592;&#29992;&#25143;</text><text fill="#212121" font-family="sans-serif" font-size="14" lengthAdjust="spacing" textLength="42" x="1573" y="613.3105">&#29992;&#25143;ID</text><line style="stroke:#212121;stroke-width:1.0;" x1="1504" x2="1583" y1="588.8926" y2="588.8926"/><text fill="#212121" font-family="sans-serif" font-size="14" lengthAdjust="spacing" textLength="28" x="1583" y="594.1895">&#23646;&#24615;</text><line style="stroke:#212121;stroke-width:1.0;" x1="1611" x2="1690" y1="588.8926" y2="588.8926"/></g><!--entity GetAdminUserByRoleId--><g id="elem_GetAdminUserByRoleId"><path d="M1726,537.5 L1726,628.3242 A2.5,2.5 0 0 0 1728.5,630.8242 L1911.5,630.8242 A2.5,2.5 0 0 0 1914,628.3242 L1914,545 L1904,535 L1728.5,535 A2.5,2.5 0 0 0 1726,537.5 " fill="#62D862" style="stroke:#212121;stroke-width:0.5;"/><path d="M1904,535 L1904,542.5 A2.5,2.5 0 0 0 1906.5,545 L1914,545 " fill="#62D862" style="stroke:#212121;stroke-width:0.5;"/><text fill="#212121" font-family="sans-serif" font-size="12" font-style="italic" lengthAdjust="spacing" textLength="46.0254" x="1796.9873" y="557.9492">&#171;Query&#187;</text><text fill="#212121" font-family="sans-serif" font-size="14" lengthAdjust="spacing" textLength="168" x="1736" y="576.0684">&#26681;&#25454;&#35282;&#33394;ID&#33719;&#21462;&#31649;&#29702;&#21592;&#29992;&#25143;</text><text fill="#212121" font-family="sans-serif" font-size="14" lengthAdjust="spacing" textLength="42" x="1796" y="613.3105">&#35282;&#33394;ID</text><line style="stroke:#212121;stroke-width:1.0;" x1="1727" x2="1806" y1="588.8926" y2="588.8926"/><text fill="#212121" font-family="sans-serif" font-size="14" lengthAdjust="spacing" textLength="28" x="1806" y="594.1895">&#23646;&#24615;</text><line style="stroke:#212121;stroke-width:1.0;" x1="1834" x2="1913" y1="588.8926" y2="588.8926"/></g><!--entity GetAdminUserByCondition--><g id="elem_GetAdminUserByCondition"><path d="M1949,537.5 L1949,628.3242 A2.5,2.5 0 0 0 1951.5,630.8242 L2120.5,630.8242 A2.5,2.5 0 0 0 2123,628.3242 L2123,545 L2113,535 L1951.5,535 A2.5,2.5 0 0 0 1949,537.5 " fill="#62D862" style="stroke:#212121;stroke-width:0.5;"/><path d="M2113,535 L2113,542.5 A2.5,2.5 0 0 0 2115.5,545 L2123,545 " fill="#62D862" style="stroke:#212121;stroke-width:0.5;"/><text fill="#212121" font-family="sans-serif" font-size="12" font-style="italic" lengthAdjust="spacing" textLength="46.0254" x="2012.9873" y="557.9492">&#171;Query&#187;</text><text fill="#212121" font-family="sans-serif" font-size="14" lengthAdjust="spacing" textLength="154" x="1959" y="576.0684">&#26681;&#25454;&#26465;&#20214;&#33719;&#21462;&#31649;&#29702;&#21592;&#29992;&#25143;</text><text fill="#212121" font-family="sans-serif" font-size="14" lengthAdjust="spacing" textLength="42" x="2012" y="613.3105">&#29992;&#25143;&#21517;</text><line style="stroke:#212121;stroke-width:1.0;" x1="1950" x2="2022" y1="588.8926" y2="588.8926"/><text fill="#212121" font-family="sans-serif" font-size="14" lengthAdjust="spacing" textLength="28" x="2022" y="594.1895">&#23646;&#24615;</text><line style="stroke:#212121;stroke-width:1.0;" x1="2050" x2="2122" y1="588.8926" y2="588.8926"/></g><!--entity GetAllAdminUser--><g id="elem_GetAllAdminUser"><path d="M1524,853.5 L1524,903.082 A2.5,2.5 0 0 0 1526.5,905.582 L1667.5,905.582 A2.5,2.5 0 0 0 1670,903.082 L1670,861 L1660,851 L1526.5,851 A2.5,2.5 0 0 0 1524,853.5 " fill="#62D862" style="stroke:#212121;stroke-width:0.5;"/><path d="M1660,851 L1660,858.5 A2.5,2.5 0 0 0 1662.5,861 L1670,861 " fill="#62D862" style="stroke:#212121;stroke-width:0.5;"/><text fill="#212121" font-family="sans-serif" font-size="12" font-style="italic" lengthAdjust="spacing" textLength="46.0254" x="1573.9873" y="873.9492">&#171;Query&#187;</text><text fill="#212121" font-family="sans-serif" font-size="14" lengthAdjust="spacing" textLength="126" x="1534" y="892.0684">&#33719;&#21462;&#25152;&#26377;&#31649;&#29702;&#21592;&#29992;&#25143;</text></g><!--link AdminUser to AdminUserRole--><g id="link_AdminUser_AdminUserRole"><path codeLine="47" d="M787,374.98 C797.05,363.14 808.79,352.87 822.5,345 C858.92,324.08 975.08,324.08 1011.5,345 C1063.92,375.11 1085.1512,435.0454 1094.5012,489.8654 " fill="none" id="AdminUser-to-AdminUserRole" style="stroke:#212121;stroke-width:1.0;"/><polygon fill="#212121" points="1095.51,495.78,1097.9399,486.2356,1094.6693,490.8512,1090.0538,487.5806,1095.51,495.78" style="stroke:#212121;stroke-width:1.0;"/></g><!--link AdminUser to AdminUserPermission--><g id="link_AdminUser_AdminUserPermission"><path codeLine="48" d="M787.86,583 C799.38,583 804.9,583 816.41,583 " fill="none" id="AdminUser-to-AdminUserPermission" style="stroke:#212121;stroke-width:1.0;"/><polygon fill="#212121" points="822.41,583,813.41,579,817.41,583,813.41,587,822.41,583" style="stroke:#212121;stroke-width:1.0;"/></g><!--link CreateAdminUser to AdminUser--><g id="link_CreateAdminUser_AdminUser"><path codeLine="1" d="M188.13,298.93 C193.59,304.59 199.22,309.98 205,315 C349.28,440.33 557.0408,523.4467 660.5808,559.9167 " fill="none" id="CreateAdminUser-to-AdminUser" style="stroke:#212121;stroke-width:1.0;"/><polygon fill="#212121" points="666.24,561.91,659.0801,555.1472,661.524,560.2489,656.4223,562.6928,666.24,561.91" style="stroke:#212121;stroke-width:1.0;"/></g><!--link UpdateAdminUserRoles to AdminUser--><g id="link_UpdateAdminUserRoles_AdminUser"><path codeLine="2" d="M365.12,259.23 C378.25,278.48 392.82,297.97 408,315 C487.88,404.64 593.6932,486.9269 661.4632,536.0869 " fill="none" id="UpdateAdminUserRoles-to-AdminUser" style="stroke:#212121;stroke-width:1.0;"/><polygon fill="#212121" points="666.32,539.61,661.3836,531.0876,662.2727,536.6741,656.6862,537.5632,666.32,539.61" style="stroke:#212121;stroke-width:1.0;"/></g><!--link UpdateAdminUserRoleInfo to AdminUser--><g id="link_UpdateAdminUserRoleInfo_AdminUser"><path codeLine="3" d="M569.87,277.52 C599.92,335.74 633.4783,400.7882 663.6283,459.2082 " fill="none" id="UpdateAdminUserRoleInfo-to-AdminUser" style="stroke:#212121;stroke-width:1.0;"/><polygon fill="#212121" points="666.38,464.54,665.807,454.7078,664.0869,460.0968,658.6979,458.3768,666.38,464.54" style="stroke:#212121;stroke-width:1.0;"/></g><!--link UpdateAdminUserPassword to AdminUser--><g id="link_UpdateAdminUserPassword_AdminUser"><path codeLine="4" d="M727,268.7 C727,301.18 727,332.03 727,368.75 " fill="none" id="UpdateAdminUserPassword-to-AdminUser" style="stroke:#212121;stroke-width:1.0;"/><polygon fill="#212121" points="727,374.75,731,365.75,727,369.75,723,365.75,727,374.75" style="stroke:#212121;stroke-width:1.0;"/></g><!--link UpdateAdminUserRefreshToken to AdminUser--><g id="link_UpdateAdminUserRefreshToken_AdminUser"><path codeLine="5" d="M879.1,259.07 C846.01,309.21 811.38,362.4 805,375 C798.97,386.91 795.5499,393.8952 789.9799,406.5952 " fill="none" id="UpdateAdminUserRefreshToken-to-AdminUser" style="stroke:#212121;stroke-width:1.0;"/><polygon fill="#212121" points="787.57,412.09,794.848,405.4545,789.5783,407.511,787.5217,402.2413,787.57,412.09" style="stroke:#212121;stroke-width:1.0;"/></g><!--link UpdateAdminUserRolePermissions to AdminUser--><g id="link_UpdateAdminUserRolePermissions_AdminUser"><path codeLine="6" d="M1084,277.64 C1072.52,291.74 1059.51,304.76 1045,315 C955.17,378.4 887.1,301.87 805,375 C798.69,380.62 796.6562,382.1293 791.3262,388.7393 " fill="none" id="UpdateAdminUserRolePermissions-to-AdminUser" style="stroke:#212121;stroke-width:1.0;"/><polygon fill="#212121" points="787.56,393.41,796.3232,388.9148,790.6985,389.5177,790.0956,383.8931,787.56,393.41" style="stroke:#212121;stroke-width:1.0;"/></g><!--link DeleteAdminUser to AdminUser--><g id="link_DeleteAdminUser_AdminUser"><path codeLine="7" d="M1311.23,259.13 C1293.49,280.76 1272.22,301.29 1248,315 C1075.08,412.85 960.42,251.22 805,375 C798.69,380.02 796.8637,381.1245 791.5337,387.1545 " fill="none" id="DeleteAdminUser-to-AdminUser" style="stroke:#212121;stroke-width:1.0;"/><polygon fill="#212121" points="787.56,391.65,796.5175,387.5558,790.8714,387.9037,790.5235,382.2576,787.56,391.65" style="stroke:#212121;stroke-width:1.0;"/></g><!--SRC=[KyyeAIaejjBNByX9p2ifpStHIyxFrIzEBInDpKjErKt9J4mlIipbKipCIyufJKbLqDEBoSbCYayjIyqhAIx9ByhDp4lNAm3gumAgILC8ytGDZtVsz_LrzGlXSixFpGKgqr3AIqrDKT9KYEPI0093lQSTiv_ktlLytSBd4zgUJfpnVCgAPntRmN96UcYYpsVkVhftAbZEME_Px2tFfcr0K_5oTXjOsWHT-iNoIIywDptPl_1Putgm2bDq5K_NjprVq0YMCyEGwzWEv3xPlUHvPmzOXJbsyv_DRNuvSmBC4HP0loruENC9mfWT4vxsR-UAvL9CpKl9JED212Gmc7CJyr8WOGSNJSdFJSpCGnC41pQQM55gJc99PdwUiuihUl07Xhe6HI9K0cEog1Ag6-e8TUJeX9dawWnM1000]--></g></svg>