<svg xmlns="http://www.w3.org/2000/svg" xmlns:xlink="http://www.w3.org/1999/xlink" contentStyleType="text/css" height="678px" preserveAspectRatio="none" style="width:919px;height:678px;background:#FFFFFF;" version="1.1" viewBox="0 0 919 678" width="919px" zoomAndPan="magnify"><defs/><g><!--entity need--><g id="elem_need"><path d="M49,70.5 L49,157.3242 A2.5,2.5 0 0 0 51.5,159.8242 L162.1758,159.8242 A2.5,2.5 0 0 0 164.6758,157.3242 L164.6758,78 L154.6758,68 L51.5,68 A2.5,2.5 0 0 0 49,70.5 " fill="none" style="stroke:#212121;stroke-width:0.5;"/><path d="M154.6758,68 L154.6758,75.5 A2.5,2.5 0 0 0 157.1758,78 L164.6758,78 " fill="none" style="stroke:#212121;stroke-width:0.5;"/><text fill="#212121" font-family="sans-serif" font-size="12" font-style="italic" lengthAdjust="spacing" textLength="65.3613" x="74.1572" y="90.9492">&#171;Comment&#187;</text><text fill="#212121" font-family="sans-serif" font-size="14" lengthAdjust="spacing" textLength="67.6758" x="73" y="109.0684">1.&#21019;&#24314;&#20998;&#31867;</text><text fill="#212121" font-family="sans-serif" font-size="14" lengthAdjust="spacing" textLength="67.6758" x="73" y="127.6895">2.&#21024;&#38500;&#20998;&#31867;</text><text fill="#212121" font-family="sans-serif" font-size="14" lengthAdjust="spacing" textLength="95.6758" x="59" y="146.3105">3.&#26356;&#26032;&#20998;&#31867;&#20449;&#24687;</text></g><!--entity CreateCategory--><g id="elem_CreateCategory"><path d="M437,18 L437,209.9297 A2.5,2.5 0 0 0 439.5,212.4297 L574.0654,212.4297 A2.5,2.5 0 0 0 576.5654,209.9297 L576.5654,25.5 L566.5654,15.5 L439.5,15.5 A2.5,2.5 0 0 0 437,18 " fill="#AEC6CF" style="stroke:#212121;stroke-width:0.5;"/><path d="M566.5654,15.5 L566.5654,23 A2.5,2.5 0 0 0 569.0654,25.5 L576.5654,25.5 " fill="#AEC6CF" style="stroke:#212121;stroke-width:0.5;"/><text fill="#212121" font-family="sans-serif" font-size="12" font-style="italic" lengthAdjust="spacing" textLength="68.7012" x="472.4321" y="38.4492">&#171;Command&#187;</text><text fill="#212121" font-family="sans-serif" font-size="14" lengthAdjust="spacing" textLength="56" x="478.7827" y="56.5684">&#21019;&#24314;&#20998;&#31867;</text><text fill="#212121" font-family="sans-serif" font-size="14" lengthAdjust="spacing" textLength="42" x="481.7827" y="93.8105">&#31649;&#29702;&#21592;</text><line style="stroke:#212121;stroke-width:1.0;" x1="438" x2="485.7827" y1="69.3926" y2="69.3926"/><text fill="#212121" font-family="sans-serif" font-size="14" lengthAdjust="spacing" textLength="42" x="485.7827" y="74.6895">&#35302;&#21457;&#32773;</text><line style="stroke:#212121;stroke-width:1.0;" x1="527.7827" x2="575.5654" y1="69.3926" y2="69.3926"/><text fill="#212121" font-family="sans-serif" font-size="14" lengthAdjust="spacing" textLength="42" x="482.7827" y="135.0527">&#20998;&#31867;&#21517;</text><line style="stroke:#212121;stroke-width:1.0;" x1="438" x2="492.7827" y1="110.6348" y2="110.6348"/><text fill="#212121" font-family="sans-serif" font-size="14" lengthAdjust="spacing" textLength="28" x="492.7827" y="115.9316">&#23646;&#24615;</text><line style="stroke:#212121;stroke-width:1.0;" x1="520.7827" x2="575.5654" y1="110.6348" y2="110.6348"/><text fill="#212121" font-family="sans-serif" font-size="14" lengthAdjust="spacing" textLength="11.6758" x="447" y="176.2949">1.</text><text fill="#212121" font-family="sans-serif" font-size="14" lengthAdjust="spacing" textLength="3.8896" x="458.6758" y="176.2949">&#160;</text><text fill="#212121" font-family="sans-serif" font-size="14" lengthAdjust="spacing" textLength="98" x="462.5654" y="176.2949">&#20998;&#31867;&#21517;&#19981;&#33021;&#20026;&#31354;</text><text fill="#212121" font-family="sans-serif" font-size="14" lengthAdjust="spacing" textLength="11.6758" x="454" y="194.916">2.</text><text fill="#212121" font-family="sans-serif" font-size="14" lengthAdjust="spacing" textLength="3.8896" x="465.6758" y="194.916">&#160;</text><text fill="#212121" font-family="sans-serif" font-size="14" lengthAdjust="spacing" textLength="84" x="469.5654" y="194.916">&#20998;&#31867;&#21517;&#19981;&#37325;&#22797;</text><line style="stroke:#212121;stroke-width:1.0;" x1="438" x2="492.7827" y1="151.877" y2="151.877"/><text fill="#212121" font-family="sans-serif" font-size="14" lengthAdjust="spacing" textLength="28" x="492.7827" y="157.1738">&#35268;&#21017;</text><line style="stroke:#212121;stroke-width:1.0;" x1="520.7827" x2="575.5654" y1="151.877" y2="151.877"/></g><!--entity UpdateCategoryInfo--><g id="elem_UpdateCategoryInfo"><path d="M612,8.5 L612,219.0508 A2.5,2.5 0 0 0 614.5,221.5508 L735.0654,221.5508 A2.5,2.5 0 0 0 737.5654,219.0508 L737.5654,16 L727.5654,6 L614.5,6 A2.5,2.5 0 0 0 612,8.5 " fill="#AEC6CF" style="stroke:#212121;stroke-width:0.5;"/><path d="M727.5654,6 L727.5654,13.5 A2.5,2.5 0 0 0 730.0654,16 L737.5654,16 " fill="#AEC6CF" style="stroke:#212121;stroke-width:0.5;"/><text fill="#212121" font-family="sans-serif" font-size="12" font-style="italic" lengthAdjust="spacing" textLength="68.7012" x="640.4321" y="28.9492">&#171;Command&#187;</text><text fill="#212121" font-family="sans-serif" font-size="14" lengthAdjust="spacing" textLength="84" x="632.7827" y="47.0684">&#26356;&#26032;&#20998;&#31867;&#20449;&#24687;</text><text fill="#212121" font-family="sans-serif" font-size="14" lengthAdjust="spacing" textLength="42" x="649.7827" y="84.3105">&#31649;&#29702;&#21592;</text><line style="stroke:#212121;stroke-width:1.0;" x1="613" x2="653.7827" y1="59.8926" y2="59.8926"/><text fill="#212121" font-family="sans-serif" font-size="14" lengthAdjust="spacing" textLength="42" x="653.7827" y="65.1895">&#35302;&#21457;&#32773;</text><line style="stroke:#212121;stroke-width:1.0;" x1="695.7827" x2="736.5654" y1="59.8926" y2="59.8926"/><text fill="#212121" font-family="sans-serif" font-size="14" lengthAdjust="spacing" textLength="42" x="650.7827" y="125.5527">&#20998;&#31867;ID</text><text fill="#212121" font-family="sans-serif" font-size="14" lengthAdjust="spacing" textLength="42" x="650.7827" y="144.1738">&#20998;&#31867;&#21517;</text><line style="stroke:#212121;stroke-width:1.0;" x1="613" x2="660.7827" y1="101.1348" y2="101.1348"/><text fill="#212121" font-family="sans-serif" font-size="14" lengthAdjust="spacing" textLength="28" x="660.7827" y="106.4316">&#23646;&#24615;</text><line style="stroke:#212121;stroke-width:1.0;" x1="688.7827" x2="736.5654" y1="101.1348" y2="101.1348"/><text fill="#212121" font-family="sans-serif" font-size="14" lengthAdjust="spacing" textLength="11.6758" x="622" y="185.416">1.</text><text fill="#212121" font-family="sans-serif" font-size="14" lengthAdjust="spacing" textLength="3.8896" x="633.6758" y="185.416">&#160;</text><text fill="#212121" font-family="sans-serif" font-size="14" lengthAdjust="spacing" textLength="84" x="637.5654" y="185.416">&#20998;&#31867;&#24517;&#39035;&#23384;&#22312;</text><text fill="#212121" font-family="sans-serif" font-size="14" lengthAdjust="spacing" textLength="11.6758" x="622" y="204.0371">2.</text><text fill="#212121" font-family="sans-serif" font-size="14" lengthAdjust="spacing" textLength="3.8896" x="633.6758" y="204.0371">&#160;</text><text fill="#212121" font-family="sans-serif" font-size="14" lengthAdjust="spacing" textLength="84" x="637.5654" y="204.0371">&#20998;&#31867;&#21517;&#19981;&#37325;&#22797;</text><line style="stroke:#212121;stroke-width:1.0;" x1="613" x2="660.7827" y1="160.998" y2="160.998"/><text fill="#212121" font-family="sans-serif" font-size="14" lengthAdjust="spacing" textLength="28" x="660.7827" y="166.2949">&#35268;&#21017;</text><line style="stroke:#212121;stroke-width:1.0;" x1="688.7827" x2="736.5654" y1="160.998" y2="160.998"/></g><!--entity DeleteCategory--><g id="elem_DeleteCategory"><path d="M773,18 L773,209.9297 A2.5,2.5 0 0 0 775.5,212.4297 L910.0654,212.4297 A2.5,2.5 0 0 0 912.5654,209.9297 L912.5654,25.5 L902.5654,15.5 L775.5,15.5 A2.5,2.5 0 0 0 773,18 " fill="#AEC6CF" style="stroke:#212121;stroke-width:0.5;"/><path d="M902.5654,15.5 L902.5654,23 A2.5,2.5 0 0 0 905.0654,25.5 L912.5654,25.5 " fill="#AEC6CF" style="stroke:#212121;stroke-width:0.5;"/><text fill="#212121" font-family="sans-serif" font-size="12" font-style="italic" lengthAdjust="spacing" textLength="68.7012" x="808.4321" y="38.4492">&#171;Command&#187;</text><text fill="#212121" font-family="sans-serif" font-size="14" lengthAdjust="spacing" textLength="56" x="814.7827" y="56.5684">&#21024;&#38500;&#20998;&#31867;</text><text fill="#212121" font-family="sans-serif" font-size="14" lengthAdjust="spacing" textLength="42" x="817.7827" y="93.8105">&#31649;&#29702;&#21592;</text><line style="stroke:#212121;stroke-width:1.0;" x1="774" x2="821.7827" y1="69.3926" y2="69.3926"/><text fill="#212121" font-family="sans-serif" font-size="14" lengthAdjust="spacing" textLength="42" x="821.7827" y="74.6895">&#35302;&#21457;&#32773;</text><line style="stroke:#212121;stroke-width:1.0;" x1="863.7827" x2="911.5654" y1="69.3926" y2="69.3926"/><text fill="#212121" font-family="sans-serif" font-size="14" lengthAdjust="spacing" textLength="42" x="818.7827" y="135.0527">&#20998;&#31867;ID</text><line style="stroke:#212121;stroke-width:1.0;" x1="774" x2="828.7827" y1="110.6348" y2="110.6348"/><text fill="#212121" font-family="sans-serif" font-size="14" lengthAdjust="spacing" textLength="28" x="828.7827" y="115.9316">&#23646;&#24615;</text><line style="stroke:#212121;stroke-width:1.0;" x1="856.7827" x2="911.5654" y1="110.6348" y2="110.6348"/><text fill="#212121" font-family="sans-serif" font-size="14" lengthAdjust="spacing" textLength="11.6758" x="790" y="176.2949">1.</text><text fill="#212121" font-family="sans-serif" font-size="14" lengthAdjust="spacing" textLength="3.8896" x="801.6758" y="176.2949">&#160;</text><text fill="#212121" font-family="sans-serif" font-size="14" lengthAdjust="spacing" textLength="84" x="805.5654" y="176.2949">&#20998;&#31867;&#24517;&#39035;&#23384;&#22312;</text><text fill="#212121" font-family="sans-serif" font-size="14" lengthAdjust="spacing" textLength="11.6758" x="783" y="194.916">2.</text><text fill="#212121" font-family="sans-serif" font-size="14" lengthAdjust="spacing" textLength="3.8896" x="794.6758" y="194.916">&#160;</text><text fill="#212121" font-family="sans-serif" font-size="14" lengthAdjust="spacing" textLength="98" x="798.5654" y="194.916">&#20998;&#31867;&#19979;&#27809;&#26377;&#25991;&#31456;</text><line style="stroke:#212121;stroke-width:1.0;" x1="774" x2="828.7827" y1="151.877" y2="151.877"/><text fill="#212121" font-family="sans-serif" font-size="14" lengthAdjust="spacing" textLength="28" x="828.7827" y="157.1738">&#35268;&#21017;</text><line style="stroke:#212121;stroke-width:1.0;" x1="856.7827" x2="911.5654" y1="151.877" y2="151.877"/></g><!--entity Category--><g id="elem_Category"><path d="M620,284.5 L620,453.8086 A2.5,2.5 0 0 0 622.5,456.3086 L727.5,456.3086 A2.5,2.5 0 0 0 730,453.8086 L730,292 L720,282 L622.5,282 A2.5,2.5 0 0 0 620,284.5 " fill="#FDFD9D" style="stroke:#212121;stroke-width:0.5;"/><path d="M720,282 L720,289.5 A2.5,2.5 0 0 0 722.5,292 L730,292 " fill="#FDFD9D" style="stroke:#212121;stroke-width:0.5;"/><text fill="#212121" font-family="sans-serif" font-size="12" font-style="italic" lengthAdjust="spacing" textLength="68.7246" x="640.6377" y="304.9492">&#171;Aggregate&#187;</text><text fill="#212121" font-family="sans-serif" font-size="14" lengthAdjust="spacing" textLength="56" x="647" y="323.0684">&#25991;&#31456;&#20998;&#31867;</text><text fill="#212121" font-family="sans-serif" font-size="14" lengthAdjust="spacing" textLength="42" x="651" y="360.3105">&#20998;&#31867;ID</text><text fill="#212121" font-family="sans-serif" font-size="14" lengthAdjust="spacing" textLength="42" x="651" y="378.9316">&#20998;&#31867;&#21517;</text><line style="stroke:#212121;stroke-width:1.0;" x1="621" x2="661" y1="335.8926" y2="335.8926"/><text fill="#212121" font-family="sans-serif" font-size="14" lengthAdjust="spacing" textLength="28" x="661" y="341.1895">&#23646;&#24615;</text><line style="stroke:#212121;stroke-width:1.0;" x1="689" x2="729" y1="335.8926" y2="335.8926"/><text fill="#212121" font-family="sans-serif" font-size="14" lengthAdjust="spacing" textLength="84" x="630" y="420.1738">&#26356;&#26032;&#20998;&#31867;&#20449;&#24687;</text><text fill="#212121" font-family="sans-serif" font-size="14" lengthAdjust="spacing" textLength="56" x="644" y="438.7949">&#21024;&#38500;&#20998;&#31867;</text><line style="stroke:#212121;stroke-width:1.0;" x1="621" x2="661" y1="395.7559" y2="395.7559"/><text fill="#212121" font-family="sans-serif" font-size="14" lengthAdjust="spacing" textLength="28" x="661" y="401.0527">&#34892;&#20026;</text><line style="stroke:#212121;stroke-width:1.0;" x1="689" x2="729" y1="395.7559" y2="395.7559"/></g><!--entity UpdatedCategoryInfo--><g id="elem_UpdatedCategoryInfo"><path d="M592,518.5 L592,669.1875 A2.5,2.5 0 0 0 594.5,671.6875 L755.5,671.6875 A2.5,2.5 0 0 0 758,669.1875 L758,526 L748,516 L594.5,516 A2.5,2.5 0 0 0 592,518.5 " fill="#FFCB81" style="stroke:#212121;stroke-width:0.5;"/><path d="M748,516 L748,523.5 A2.5,2.5 0 0 0 750.5,526 L758,526 " fill="#FFCB81" style="stroke:#212121;stroke-width:0.5;"/><text fill="#212121" font-family="sans-serif" font-size="12" font-style="italic" lengthAdjust="spacing" textLength="85.3828" x="632.3086" y="538.9492">&#171;DomainEvent&#187;</text><text fill="#212121" font-family="sans-serif" font-size="14" lengthAdjust="spacing" textLength="70" x="640" y="557.0684">&#24050;&#26356;&#26032;&#20998;&#31867;</text><text fill="#212121" font-family="sans-serif" font-size="14" lengthAdjust="spacing" textLength="42" x="651" y="594.3105">&#20998;&#31867;ID</text><text fill="#212121" font-family="sans-serif" font-size="14" lengthAdjust="spacing" textLength="42" x="651" y="612.9316">&#20998;&#31867;&#21517;</text><line style="stroke:#212121;stroke-width:1.0;" x1="593" x2="661" y1="569.8926" y2="569.8926"/><text fill="#212121" font-family="sans-serif" font-size="14" lengthAdjust="spacing" textLength="28" x="661" y="575.1895">&#23646;&#24615;</text><line style="stroke:#212121;stroke-width:1.0;" x1="689" x2="757" y1="569.8926" y2="569.8926"/><text fill="#212121" font-family="sans-serif" font-size="14" lengthAdjust="spacing" textLength="140" x="602" y="654.1738">&#25317;&#26377;&#35813;&#20998;&#31867;&#30340;&#25152;&#26377;&#25991;&#31456;</text><line style="stroke:#212121;stroke-width:1.0;" x1="593" x2="654" y1="629.7559" y2="629.7559"/><text fill="#212121" font-family="sans-serif" font-size="14" lengthAdjust="spacing" textLength="42" x="654" y="635.0527">&#30417;&#21548;&#32773;</text><line style="stroke:#212121;stroke-width:1.0;" x1="696" x2="757" y1="629.7559" y2="629.7559"/></g><!--entity CategoryExistsByName--><g id="elem_CategoryExistsByName"><path d="M200,68.5 L200,159.3242 A2.5,2.5 0 0 0 202.5,161.8242 L399.5,161.8242 A2.5,2.5 0 0 0 402,159.3242 L402,76 L392,66 L202.5,66 A2.5,2.5 0 0 0 200,68.5 " fill="#62D862" style="stroke:#212121;stroke-width:0.5;"/><path d="M392,66 L392,73.5 A2.5,2.5 0 0 0 394.5,76 L402,76 " fill="#62D862" style="stroke:#212121;stroke-width:0.5;"/><text fill="#212121" font-family="sans-serif" font-size="12" font-style="italic" lengthAdjust="spacing" textLength="46.0254" x="277.9873" y="88.9492">&#171;Query&#187;</text><text fill="#212121" font-family="sans-serif" font-size="14" lengthAdjust="spacing" textLength="182" x="210" y="107.0684">&#26681;&#25454;&#20998;&#31867;&#21517;&#21028;&#26029;&#20998;&#31867;&#26159;&#21542;&#23384;&#22312;</text><text fill="#212121" font-family="sans-serif" font-size="14" lengthAdjust="spacing" textLength="42" x="277" y="144.3105">&#20998;&#31867;&#21517;</text><line style="stroke:#212121;stroke-width:1.0;" x1="201" x2="287" y1="119.8926" y2="119.8926"/><text fill="#212121" font-family="sans-serif" font-size="14" lengthAdjust="spacing" textLength="28" x="287" y="125.1895">&#23646;&#24615;</text><line style="stroke:#212121;stroke-width:1.0;" x1="315" x2="401" y1="119.8926" y2="119.8926"/></g><!--entity CategoryExistsById--><g id="elem_CategoryExistsById"><path d="M6,323.5 L6,414.3242 A2.5,2.5 0 0 0 8.5,416.8242 L205.5,416.8242 A2.5,2.5 0 0 0 208,414.3242 L208,331 L198,321 L8.5,321 A2.5,2.5 0 0 0 6,323.5 " fill="#62D862" style="stroke:#212121;stroke-width:0.5;"/><path d="M198,321 L198,328.5 A2.5,2.5 0 0 0 200.5,331 L208,331 " fill="#62D862" style="stroke:#212121;stroke-width:0.5;"/><text fill="#212121" font-family="sans-serif" font-size="12" font-style="italic" lengthAdjust="spacing" textLength="46.0254" x="83.9873" y="343.9492">&#171;Query&#187;</text><text fill="#212121" font-family="sans-serif" font-size="14" lengthAdjust="spacing" textLength="182" x="16" y="362.0684">&#26681;&#25454;&#20998;&#31867;ID&#21028;&#26029;&#20998;&#31867;&#26159;&#21542;&#23384;&#22312;</text><text fill="#212121" font-family="sans-serif" font-size="14" lengthAdjust="spacing" textLength="42" x="83" y="399.3105">&#20998;&#31867;ID</text><line style="stroke:#212121;stroke-width:1.0;" x1="7" x2="93" y1="374.8926" y2="374.8926"/><text fill="#212121" font-family="sans-serif" font-size="14" lengthAdjust="spacing" textLength="28" x="93" y="380.1895">&#23646;&#24615;</text><line style="stroke:#212121;stroke-width:1.0;" x1="121" x2="207" y1="374.8926" y2="374.8926"/></g><!--entity getCategoryById--><g id="elem_getCategoryById"><path d="M243,323.5 L243,414.3242 A2.5,2.5 0 0 0 245.5,416.8242 L386.5,416.8242 A2.5,2.5 0 0 0 389,414.3242 L389,331 L379,321 L245.5,321 A2.5,2.5 0 0 0 243,323.5 " fill="#62D862" style="stroke:#212121;stroke-width:0.5;"/><path d="M379,321 L379,328.5 A2.5,2.5 0 0 0 381.5,331 L389,331 " fill="#62D862" style="stroke:#212121;stroke-width:0.5;"/><text fill="#212121" font-family="sans-serif" font-size="12" font-style="italic" lengthAdjust="spacing" textLength="46.0254" x="292.9873" y="343.9492">&#171;Query&#187;</text><text fill="#212121" font-family="sans-serif" font-size="14" lengthAdjust="spacing" textLength="126" x="253" y="362.0684">&#26681;&#25454;&#20998;&#31867;ID&#33719;&#21462;&#20998;&#31867;</text><text fill="#212121" font-family="sans-serif" font-size="14" lengthAdjust="spacing" textLength="42" x="292" y="399.3105">&#20998;&#31867;ID</text><line style="stroke:#212121;stroke-width:1.0;" x1="244" x2="302" y1="374.8926" y2="374.8926"/><text fill="#212121" font-family="sans-serif" font-size="14" lengthAdjust="spacing" textLength="28" x="302" y="380.1895">&#23646;&#24615;</text><line style="stroke:#212121;stroke-width:1.0;" x1="330" x2="388" y1="374.8926" y2="374.8926"/></g><!--link CreateCategory to Category--><g id="link_CreateCategory_Category"><path codeLine="1" d="M571.95,212.82 C587.74,236.59 601.1613,256.8014 616.4513,279.8314 " fill="none" id="CreateCategory-to-Category" style="stroke:#212121;stroke-width:1.0;"/><polygon fill="#212121" points="619.77,284.83,618.1244,275.1196,617.0044,280.6645,611.4596,279.5445,619.77,284.83" style="stroke:#212121;stroke-width:1.0;"/></g><!--link UpdateCategoryInfo to Category--><g id="link_UpdateCategoryInfo_Category"><path codeLine="2" d="M675,222.29 C675,242.09 675,256.53 675,275.61 " fill="none" id="UpdateCategoryInfo-to-Category" style="stroke:#212121;stroke-width:1.0;"/><polygon fill="#212121" points="675,281.61,679,272.61,675,276.61,671,272.61,675,281.61" style="stroke:#212121;stroke-width:1.0;"/></g><!--link DeleteCategory to Category--><g id="link_DeleteCategory_Category"><path codeLine="3" d="M778.05,212.82 C762.26,236.59 748.8387,256.8014 733.5487,279.8314 " fill="none" id="DeleteCategory-to-Category" style="stroke:#212121;stroke-width:1.0;"/><polygon fill="#212121" points="730.23,284.83,738.5404,279.5445,732.9956,280.6645,731.8756,275.1196,730.23,284.83" style="stroke:#212121;stroke-width:1.0;"/></g><!--link Category to UpdatedCategoryInfo--><g id="link_Category_UpdatedCategoryInfo"><path codeLine="5" d="M675,456.22 C675,475.83 675,490.54 675,509.75 " fill="none" id="Category-to-UpdatedCategoryInfo" style="stroke:#212121;stroke-width:1.0;"/><polygon fill="#212121" points="675,515.75,679,506.75,675,510.75,671,506.75,675,515.75" style="stroke:#212121;stroke-width:1.0;"/></g><!--SRC=[KyyeAIaejjBNByX9p2ifpStHIyxFrIzEBInDpKjErKt9J4mlIipbKipCIyufJKbLqDEBoSbCYayjIyqhAIx9ByhDp4lNAm3gumAgILC8ytGDZtVsz_LrzGlXSixFpGKgqr3AIqrDKT9KYEPI0093lQSTiv_ktlMqe-tvnjrW8IEWq8ANCvSW2HdhFPkzvTcq3H2X9_iNFcjSpnNBfPYQbvAPneLm3z2rkObvAH0dm4LJydCJC_FG1C5kHXChIir9BCdCptDsSKNtHM2eQr0aGYKmG8egeRgXZb173XMOIQxEO4K0]--></g></svg>