<svg xmlns="http://www.w3.org/2000/svg" xmlns:xlink="http://www.w3.org/1999/xlink" contentStyleType="text/css" height="537px" preserveAspectRatio="none" style="width:1214px;height:537px;background:#FFFFFF;" version="1.1" viewBox="0 0 1214 537" width="1214px" zoomAndPan="magnify"><defs/><g><!--entity need--><g id="elem_need"><path d="M35,70.5 L35,175.9453 A2.5,2.5 0 0 0 37.5,178.4453 L120.1758,178.4453 A2.5,2.5 0 0 0 122.6758,175.9453 L122.6758,78 L112.6758,68 L37.5,68 A2.5,2.5 0 0 0 35,70.5 " fill="none" style="stroke:#212121;stroke-width:0.5;"/><path d="M112.6758,68 L112.6758,75.5 A2.5,2.5 0 0 0 115.1758,78 L122.6758,78 " fill="none" style="stroke:#212121;stroke-width:0.5;"/><text fill="#212121" font-family="sans-serif" font-size="12" font-style="italic" lengthAdjust="spacing" textLength="65.3613" x="46.1572" y="90.9492">&#171;Comment&#187;</text><text fill="#212121" font-family="sans-serif" font-size="14" lengthAdjust="spacing" textLength="67.6758" x="45" y="109.0684">1.&#21019;&#24314;&#35746;&#21333;</text><text fill="#212121" font-family="sans-serif" font-size="14" lengthAdjust="spacing" textLength="67.6758" x="45" y="127.6895">2.&#36864;&#27454;&#35746;&#21333;</text><text fill="#212121" font-family="sans-serif" font-size="14" lengthAdjust="spacing" textLength="67.6758" x="45" y="146.3105">3.&#25903;&#20184;&#35746;&#21333;</text><text fill="#212121" font-family="sans-serif" font-size="14" lengthAdjust="spacing" textLength="67.6758" x="45" y="164.9316">4.&#21462;&#28040;&#35746;&#21333;</text></g><!--entity CreateOrder--><g id="elem_CreateOrder"><path d="M395.5,8.5 L395.5,237.6719 A2.5,2.5 0 0 0 398,240.1719 L582.3516,240.1719 A2.5,2.5 0 0 0 584.8516,237.6719 L584.8516,16 L574.8516,6 L398,6 A2.5,2.5 0 0 0 395.5,8.5 " fill="#AEC6CF" style="stroke:#212121;stroke-width:0.5;"/><path d="M574.8516,6 L574.8516,13.5 A2.5,2.5 0 0 0 577.3516,16 L584.8516,16 " fill="#AEC6CF" style="stroke:#212121;stroke-width:0.5;"/><text fill="#212121" font-family="sans-serif" font-size="12" font-style="italic" lengthAdjust="spacing" textLength="68.7012" x="455.8252" y="28.9492">&#171;Command&#187;</text><text fill="#212121" font-family="sans-serif" font-size="14" lengthAdjust="spacing" textLength="56" x="462.1758" y="47.0684">&#21019;&#24314;&#35746;&#21333;</text><text fill="#212121" font-family="sans-serif" font-size="14" lengthAdjust="spacing" textLength="49.7656" x="462.293" y="84.3105">(TODO)</text><line style="stroke:#212121;stroke-width:1.0;" x1="396.5" x2="469.1758" y1="59.8926" y2="59.8926"/><text fill="#212121" font-family="sans-serif" font-size="14" lengthAdjust="spacing" textLength="42" x="469.1758" y="65.1895">&#35302;&#21457;&#32773;</text><line style="stroke:#212121;stroke-width:1.0;" x1="511.1758" x2="583.8516" y1="59.8926" y2="59.8926"/><text fill="#212121" font-family="sans-serif" font-size="14" lengthAdjust="spacing" textLength="42" x="466.1758" y="125.5527">&#35746;&#21333;ID</text><text fill="#212121" font-family="sans-serif" font-size="14" lengthAdjust="spacing" textLength="56" x="459.1758" y="144.1738">&#35746;&#21333;&#37329;&#39069;</text><text fill="#212121" font-family="sans-serif" font-size="14" lengthAdjust="spacing" textLength="56" x="459.1758" y="162.7949">&#23454;&#20184;&#37329;&#39069;</text><line style="stroke:#212121;stroke-width:1.0;" x1="396.5" x2="476.1758" y1="101.1348" y2="101.1348"/><text fill="#212121" font-family="sans-serif" font-size="14" lengthAdjust="spacing" textLength="28" x="476.1758" y="106.4316">&#23646;&#24615;</text><line style="stroke:#212121;stroke-width:1.0;" x1="504.1758" x2="583.8516" y1="101.1348" y2="101.1348"/><text fill="#212121" font-family="sans-serif" font-size="14" lengthAdjust="spacing" textLength="11.6758" x="416.3931" y="204.0371">1.</text><text fill="#212121" font-family="sans-serif" font-size="14" lengthAdjust="spacing" textLength="3.8896" x="428.0688" y="204.0371">&#160;</text><text fill="#212121" font-family="sans-serif" font-size="14" lengthAdjust="spacing" textLength="126" x="431.9585" y="204.0371">&#35746;&#21333;&#37329;&#39069;&#24517;&#39035;&#22823;&#20110;&#38646;</text><text fill="#212121" font-family="sans-serif" font-size="14" lengthAdjust="spacing" textLength="11.6758" x="405.5" y="222.6582">3.</text><text fill="#212121" font-family="sans-serif" font-size="14" lengthAdjust="spacing" textLength="3.8896" x="417.1758" y="222.6582">&#160;</text><text fill="#212121" font-family="sans-serif" font-size="14" lengthAdjust="spacing" textLength="147.7861" x="421.0654" y="222.6582">&#23454;&#20184;&#37329;&#39069;&#24517;&#39035;&#22823;&#20110;&#31561;&#20110;0</text><line style="stroke:#212121;stroke-width:1.0;" x1="396.5" x2="476.1758" y1="179.6191" y2="179.6191"/><text fill="#212121" font-family="sans-serif" font-size="14" lengthAdjust="spacing" textLength="28" x="476.1758" y="184.916">&#35268;&#21017;</text><line style="stroke:#212121;stroke-width:1.0;" x1="504.1758" x2="583.8516" y1="179.6191" y2="179.6191"/></g><!--entity RefundOrder--><g id="elem_RefundOrder"><path d="M620,27 L620,218.9297 A2.5,2.5 0 0 0 622.5,221.4297 L799.0654,221.4297 A2.5,2.5 0 0 0 801.5654,218.9297 L801.5654,34.5 L791.5654,24.5 L622.5,24.5 A2.5,2.5 0 0 0 620,27 " fill="#AEC6CF" style="stroke:#212121;stroke-width:0.5;"/><path d="M791.5654,24.5 L791.5654,32 A2.5,2.5 0 0 0 794.0654,34.5 L801.5654,34.5 " fill="#AEC6CF" style="stroke:#212121;stroke-width:0.5;"/><text fill="#212121" font-family="sans-serif" font-size="12" font-style="italic" lengthAdjust="spacing" textLength="68.7012" x="676.4321" y="47.4492">&#171;Command&#187;</text><text fill="#212121" font-family="sans-serif" font-size="14" lengthAdjust="spacing" textLength="56" x="682.7827" y="65.5684">&#36864;&#27454;&#35746;&#21333;</text><text fill="#212121" font-family="sans-serif" font-size="14" lengthAdjust="spacing" textLength="56" x="679.7827" y="102.8105">&#24403;&#21069;&#29992;&#25143;</text><line style="stroke:#212121;stroke-width:1.0;" x1="621" x2="689.7827" y1="78.3926" y2="78.3926"/><text fill="#212121" font-family="sans-serif" font-size="14" lengthAdjust="spacing" textLength="42" x="689.7827" y="83.6895">&#35302;&#21457;&#32773;</text><line style="stroke:#212121;stroke-width:1.0;" x1="731.7827" x2="800.5654" y1="78.3926" y2="78.3926"/><text fill="#212121" font-family="sans-serif" font-size="14" lengthAdjust="spacing" textLength="42" x="686.7827" y="144.0527">&#35746;&#21333;ID</text><line style="stroke:#212121;stroke-width:1.0;" x1="621" x2="696.7827" y1="119.6348" y2="119.6348"/><text fill="#212121" font-family="sans-serif" font-size="14" lengthAdjust="spacing" textLength="28" x="696.7827" y="124.9316">&#23646;&#24615;</text><line style="stroke:#212121;stroke-width:1.0;" x1="724.7827" x2="800.5654" y1="119.6348" y2="119.6348"/><text fill="#212121" font-family="sans-serif" font-size="14" lengthAdjust="spacing" textLength="11.6758" x="658" y="185.2949">1.</text><text fill="#212121" font-family="sans-serif" font-size="14" lengthAdjust="spacing" textLength="3.8896" x="669.6758" y="185.2949">&#160;</text><text fill="#212121" font-family="sans-serif" font-size="14" lengthAdjust="spacing" textLength="84" x="673.5654" y="185.2949">&#35746;&#21333;&#24517;&#39035;&#23384;&#22312;</text><text fill="#212121" font-family="sans-serif" font-size="14" lengthAdjust="spacing" textLength="11.6758" x="630" y="203.916">2.</text><text fill="#212121" font-family="sans-serif" font-size="14" lengthAdjust="spacing" textLength="3.8896" x="641.6758" y="203.916">&#160;</text><text fill="#212121" font-family="sans-serif" font-size="14" lengthAdjust="spacing" textLength="140" x="645.5654" y="203.916">&#35746;&#21333;&#29366;&#24577;&#19981;&#20026;&#36864;&#27454;&#25104;&#21151;</text><line style="stroke:#212121;stroke-width:1.0;" x1="621" x2="696.7827" y1="160.877" y2="160.877"/><text fill="#212121" font-family="sans-serif" font-size="14" lengthAdjust="spacing" textLength="28" x="696.7827" y="166.1738">&#35268;&#21017;</text><line style="stroke:#212121;stroke-width:1.0;" x1="724.7827" x2="800.5654" y1="160.877" y2="160.877"/></g><!--entity PayOrder--><g id="elem_PayOrder"><path d="M837,27 L837,218.9297 A2.5,2.5 0 0 0 839.5,221.4297 L1002.0654,221.4297 A2.5,2.5 0 0 0 1004.5654,218.9297 L1004.5654,34.5 L994.5654,24.5 L839.5,24.5 A2.5,2.5 0 0 0 837,27 " fill="#AEC6CF" style="stroke:#212121;stroke-width:0.5;"/><path d="M994.5654,24.5 L994.5654,32 A2.5,2.5 0 0 0 997.0654,34.5 L1004.5654,34.5 " fill="#AEC6CF" style="stroke:#212121;stroke-width:0.5;"/><text fill="#212121" font-family="sans-serif" font-size="12" font-style="italic" lengthAdjust="spacing" textLength="68.7012" x="886.4321" y="47.4492">&#171;Command&#187;</text><text fill="#212121" font-family="sans-serif" font-size="14" lengthAdjust="spacing" textLength="56" x="892.7827" y="65.5684">&#25903;&#20184;&#35746;&#21333;</text><text fill="#212121" font-family="sans-serif" font-size="14" lengthAdjust="spacing" textLength="56" x="889.7827" y="102.8105">&#24403;&#21069;&#29992;&#25143;</text><line style="stroke:#212121;stroke-width:1.0;" x1="838" x2="899.7827" y1="78.3926" y2="78.3926"/><text fill="#212121" font-family="sans-serif" font-size="14" lengthAdjust="spacing" textLength="42" x="899.7827" y="83.6895">&#35302;&#21457;&#32773;</text><line style="stroke:#212121;stroke-width:1.0;" x1="941.7827" x2="1003.5654" y1="78.3926" y2="78.3926"/><text fill="#212121" font-family="sans-serif" font-size="14" lengthAdjust="spacing" textLength="42" x="896.7827" y="144.0527">&#35746;&#21333;ID</text><line style="stroke:#212121;stroke-width:1.0;" x1="838" x2="906.7827" y1="119.6348" y2="119.6348"/><text fill="#212121" font-family="sans-serif" font-size="14" lengthAdjust="spacing" textLength="28" x="906.7827" y="124.9316">&#23646;&#24615;</text><line style="stroke:#212121;stroke-width:1.0;" x1="934.7827" x2="1003.5654" y1="119.6348" y2="119.6348"/><text fill="#212121" font-family="sans-serif" font-size="14" lengthAdjust="spacing" textLength="11.6758" x="868" y="185.2949">1.</text><text fill="#212121" font-family="sans-serif" font-size="14" lengthAdjust="spacing" textLength="3.8896" x="879.6758" y="185.2949">&#160;</text><text fill="#212121" font-family="sans-serif" font-size="14" lengthAdjust="spacing" textLength="84" x="883.5654" y="185.2949">&#35746;&#21333;&#24517;&#39035;&#23384;&#22312;</text><text fill="#212121" font-family="sans-serif" font-size="14" lengthAdjust="spacing" textLength="11.6758" x="847" y="203.916">2.</text><text fill="#212121" font-family="sans-serif" font-size="14" lengthAdjust="spacing" textLength="3.8896" x="858.6758" y="203.916">&#160;</text><text fill="#212121" font-family="sans-serif" font-size="14" lengthAdjust="spacing" textLength="126" x="862.5654" y="203.916">&#35746;&#21333;&#29366;&#24577;&#20026;&#24050;&#24453;&#25903;&#20184;</text><line style="stroke:#212121;stroke-width:1.0;" x1="838" x2="906.7827" y1="160.877" y2="160.877"/><text fill="#212121" font-family="sans-serif" font-size="14" lengthAdjust="spacing" textLength="28" x="906.7827" y="166.1738">&#35268;&#21017;</text><line style="stroke:#212121;stroke-width:1.0;" x1="934.7827" x2="1003.5654" y1="160.877" y2="160.877"/></g><!--entity CancelOrder--><g id="elem_CancelOrder"><path d="M1040,27 L1040,218.9297 A2.5,2.5 0 0 0 1042.5,221.4297 L1205.0654,221.4297 A2.5,2.5 0 0 0 1207.5654,218.9297 L1207.5654,34.5 L1197.5654,24.5 L1042.5,24.5 A2.5,2.5 0 0 0 1040,27 " fill="#AEC6CF" style="stroke:#212121;stroke-width:0.5;"/><path d="M1197.5654,24.5 L1197.5654,32 A2.5,2.5 0 0 0 1200.0654,34.5 L1207.5654,34.5 " fill="#AEC6CF" style="stroke:#212121;stroke-width:0.5;"/><text fill="#212121" font-family="sans-serif" font-size="12" font-style="italic" lengthAdjust="spacing" textLength="68.7012" x="1089.4321" y="47.4492">&#171;Command&#187;</text><text fill="#212121" font-family="sans-serif" font-size="14" lengthAdjust="spacing" textLength="56" x="1095.7827" y="65.5684">&#21462;&#28040;&#35746;&#21333;</text><text fill="#212121" font-family="sans-serif" font-size="14" lengthAdjust="spacing" textLength="56" x="1092.7827" y="102.8105">&#24403;&#21069;&#29992;&#25143;</text><line style="stroke:#212121;stroke-width:1.0;" x1="1041" x2="1102.7827" y1="78.3926" y2="78.3926"/><text fill="#212121" font-family="sans-serif" font-size="14" lengthAdjust="spacing" textLength="42" x="1102.7827" y="83.6895">&#35302;&#21457;&#32773;</text><line style="stroke:#212121;stroke-width:1.0;" x1="1144.7827" x2="1206.5654" y1="78.3926" y2="78.3926"/><text fill="#212121" font-family="sans-serif" font-size="14" lengthAdjust="spacing" textLength="42" x="1099.7827" y="144.0527">&#35746;&#21333;ID</text><line style="stroke:#212121;stroke-width:1.0;" x1="1041" x2="1109.7827" y1="119.6348" y2="119.6348"/><text fill="#212121" font-family="sans-serif" font-size="14" lengthAdjust="spacing" textLength="28" x="1109.7827" y="124.9316">&#23646;&#24615;</text><line style="stroke:#212121;stroke-width:1.0;" x1="1137.7827" x2="1206.5654" y1="119.6348" y2="119.6348"/><text fill="#212121" font-family="sans-serif" font-size="14" lengthAdjust="spacing" textLength="11.6758" x="1071" y="185.2949">1.</text><text fill="#212121" font-family="sans-serif" font-size="14" lengthAdjust="spacing" textLength="3.8896" x="1082.6758" y="185.2949">&#160;</text><text fill="#212121" font-family="sans-serif" font-size="14" lengthAdjust="spacing" textLength="84" x="1086.5654" y="185.2949">&#35746;&#21333;&#24517;&#39035;&#23384;&#22312;</text><text fill="#212121" font-family="sans-serif" font-size="14" lengthAdjust="spacing" textLength="11.6758" x="1050" y="203.916">2.</text><text fill="#212121" font-family="sans-serif" font-size="14" lengthAdjust="spacing" textLength="3.8896" x="1061.6758" y="203.916">&#160;</text><text fill="#212121" font-family="sans-serif" font-size="14" lengthAdjust="spacing" textLength="126" x="1065.5654" y="203.916">&#35746;&#21333;&#29366;&#24577;&#20026;&#24050;&#24453;&#25903;&#20184;</text><line style="stroke:#212121;stroke-width:1.0;" x1="1041" x2="1109.7827" y1="160.877" y2="160.877"/><text fill="#212121" font-family="sans-serif" font-size="14" lengthAdjust="spacing" textLength="28" x="1109.7827" y="166.1738">&#35268;&#21017;</text><line style="stroke:#212121;stroke-width:1.0;" x1="1137.7827" x2="1206.5654" y1="160.877" y2="160.877"/></g><!--entity Order--><g id="elem_Order"><path d="M771.5,302.5 L771.5,527.6719 A2.5,2.5 0 0 0 774,530.1719 L857.7246,530.1719 A2.5,2.5 0 0 0 860.2246,527.6719 L860.2246,310 L850.2246,300 L774,300 A2.5,2.5 0 0 0 771.5,302.5 " fill="#FDFD9D" style="stroke:#212121;stroke-width:0.5;"/><path d="M850.2246,300 L850.2246,307.5 A2.5,2.5 0 0 0 852.7246,310 L860.2246,310 " fill="#FDFD9D" style="stroke:#212121;stroke-width:0.5;"/><text fill="#212121" font-family="sans-serif" font-size="12" font-style="italic" lengthAdjust="spacing" textLength="68.7246" x="781.5" y="322.9492">&#171;Aggregate&#187;</text><text fill="#212121" font-family="sans-serif" font-size="14" lengthAdjust="spacing" textLength="28" x="801.8623" y="341.0684">&#35746;&#21333;</text><text fill="#212121" font-family="sans-serif" font-size="14" lengthAdjust="spacing" textLength="42" x="791.8623" y="378.3105">&#35746;&#21333;ID</text><text fill="#212121" font-family="sans-serif" font-size="14" lengthAdjust="spacing" textLength="56" x="784.8623" y="396.9316">&#35746;&#21333;&#37329;&#39069;</text><text fill="#212121" font-family="sans-serif" font-size="14" lengthAdjust="spacing" textLength="56" x="784.8623" y="415.5527">&#23454;&#20184;&#37329;&#39069;</text><text fill="#212121" font-family="sans-serif" font-size="14" lengthAdjust="spacing" textLength="28" x="798.8623" y="434.1738">&#29366;&#24577;</text><line style="stroke:#212121;stroke-width:1.0;" x1="772.5" x2="801.8623" y1="353.8926" y2="353.8926"/><text fill="#212121" font-family="sans-serif" font-size="14" lengthAdjust="spacing" textLength="28" x="801.8623" y="359.1895">&#23646;&#24615;</text><line style="stroke:#212121;stroke-width:1.0;" x1="829.8623" x2="859.2246" y1="353.8926" y2="353.8926"/><text fill="#212121" font-family="sans-serif" font-size="14" lengthAdjust="spacing" textLength="56" x="784.8623" y="475.416">&#36864;&#27454;&#35746;&#21333;</text><text fill="#212121" font-family="sans-serif" font-size="14" lengthAdjust="spacing" textLength="56" x="784.8623" y="494.0371">&#25903;&#20184;&#35746;&#21333;</text><text fill="#212121" font-family="sans-serif" font-size="14" lengthAdjust="spacing" textLength="56" x="784.8623" y="512.6582">&#21462;&#28040;&#35746;&#21333;</text><line style="stroke:#212121;stroke-width:1.0;" x1="772.5" x2="801.8623" y1="450.998" y2="450.998"/><text fill="#212121" font-family="sans-serif" font-size="14" lengthAdjust="spacing" textLength="28" x="801.8623" y="456.2949">&#34892;&#20026;</text><line style="stroke:#212121;stroke-width:1.0;" x1="829.8623" x2="859.2246" y1="450.998" y2="450.998"/></g><!--entity OrderExistsById--><g id="elem_OrderExistsById"><path d="M158,77.5 L158,168.3242 A2.5,2.5 0 0 0 160.5,170.8242 L357.5,170.8242 A2.5,2.5 0 0 0 360,168.3242 L360,85 L350,75 L160.5,75 A2.5,2.5 0 0 0 158,77.5 " fill="#62D862" style="stroke:#212121;stroke-width:0.5;"/><path d="M350,75 L350,82.5 A2.5,2.5 0 0 0 352.5,85 L360,85 " fill="#62D862" style="stroke:#212121;stroke-width:0.5;"/><text fill="#212121" font-family="sans-serif" font-size="12" font-style="italic" lengthAdjust="spacing" textLength="46.0254" x="235.9873" y="97.9492">&#171;Query&#187;</text><text fill="#212121" font-family="sans-serif" font-size="14" lengthAdjust="spacing" textLength="182" x="168" y="116.0684">&#26681;&#25454;&#35746;&#21333;ID&#21028;&#26029;&#35746;&#21333;&#26159;&#21542;&#23384;&#22312;</text><text fill="#212121" font-family="sans-serif" font-size="14" lengthAdjust="spacing" textLength="42" x="235" y="153.3105">&#35746;&#21333;ID</text><line style="stroke:#212121;stroke-width:1.0;" x1="159" x2="245" y1="128.8926" y2="128.8926"/><text fill="#212121" font-family="sans-serif" font-size="14" lengthAdjust="spacing" textLength="28" x="245" y="134.1895">&#23646;&#24615;</text><line style="stroke:#212121;stroke-width:1.0;" x1="273" x2="359" y1="128.8926" y2="128.8926"/></g><!--entity GetOrderById--><g id="elem_GetOrderById"><path d="M6,369.5 L6,460.3242 A2.5,2.5 0 0 0 8.5,462.8242 L149.5,462.8242 A2.5,2.5 0 0 0 152,460.3242 L152,377 L142,367 L8.5,367 A2.5,2.5 0 0 0 6,369.5 " fill="#62D862" style="stroke:#212121;stroke-width:0.5;"/><path d="M142,367 L142,374.5 A2.5,2.5 0 0 0 144.5,377 L152,377 " fill="#62D862" style="stroke:#212121;stroke-width:0.5;"/><text fill="#212121" font-family="sans-serif" font-size="12" font-style="italic" lengthAdjust="spacing" textLength="46.0254" x="55.9873" y="389.9492">&#171;Query&#187;</text><text fill="#212121" font-family="sans-serif" font-size="14" lengthAdjust="spacing" textLength="126" x="16" y="408.0684">&#26681;&#25454;&#35746;&#21333;ID&#33719;&#21462;&#35746;&#21333;</text><text fill="#212121" font-family="sans-serif" font-size="14" lengthAdjust="spacing" textLength="42" x="55" y="445.3105">&#35746;&#21333;ID</text><line style="stroke:#212121;stroke-width:1.0;" x1="7" x2="65" y1="420.8926" y2="420.8926"/><text fill="#212121" font-family="sans-serif" font-size="14" lengthAdjust="spacing" textLength="28" x="65" y="426.1895">&#23646;&#24615;</text><line style="stroke:#212121;stroke-width:1.0;" x1="93" x2="151" y1="420.8926" y2="420.8926"/></g><!--link CreateOrder to Order--><g id="link_CreateOrder_Order"><path codeLine="1" d="M584.53,223.52 C590.38,229.17 596.23,234.7 602,240 C658.08,291.49 722.2945,342.4914 766.5145,376.5114 " fill="none" id="CreateOrder-to-Order" style="stroke:#212121;stroke-width:1.0;"/><polygon fill="#212121" points="771.27,380.17,766.5758,371.5118,767.3071,377.1212,761.6977,377.8525,771.27,380.17" style="stroke:#212121;stroke-width:1.0;"/></g><!--link RefundOrder to Order--><g id="link_RefundOrder_Order"><path codeLine="2" d="M746.4,221.78 C755.48,246.85 763.2878,268.3982 772.6378,294.2282 " fill="none" id="RefundOrder-to-Order" style="stroke:#212121;stroke-width:1.0;"/><polygon fill="#212121" points="774.68,299.87,775.3778,290.0459,772.9782,295.1685,767.8555,292.7688,774.68,299.87" style="stroke:#212121;stroke-width:1.0;"/></g><!--link PayOrder to Order--><g id="link_PayOrder_Order"><path codeLine="3" d="M885.6,221.78 C876.52,246.85 868.7122,268.3982 859.3622,294.2282 " fill="none" id="PayOrder-to-Order" style="stroke:#212121;stroke-width:1.0;"/><polygon fill="#212121" points="857.32,299.87,864.1445,292.7688,859.0218,295.1685,856.6222,290.0459,857.32,299.87" style="stroke:#212121;stroke-width:1.0;"/></g><!--link CancelOrder to Order--><g id="link_CancelOrder_Order"><path codeLine="4" d="M1041.05,221.56 C1035.05,227.9 1029,234.1 1023,240 C970.1,291.99 908.3627,342.3892 865.2427,376.1792 " fill="none" id="CancelOrder-to-Order" style="stroke:#212121;stroke-width:1.0;"/><polygon fill="#212121" points="860.52,379.88,870.0713,377.4772,864.4556,376.796,865.1368,371.1803,860.52,379.88" style="stroke:#212121;stroke-width:1.0;"/></g><!--SRC=[KyyeAIaejjBNByX9p2ifpStHIyxFrIzEBInDpKjErKt9J4mlIipbKipCIyufJKbLqDEBoSbCYayjIyqhAIx9ByhDp4lNAm3gumAgILC8ytGDZtVsz_LrzGlXSixFpGKgqr3AIqrDKT9KYEPI0093lQSTiv_ktlLYtQAdlLF1GaPwBniQdgtPXoHahFTioledksSW2PdeFUsVzcnR1rGebainDIybCuqBuJYWqtCJyr8Wxe6BfkJd9cRceGc2FO0cLfIQarYIcP_dxEAAxgN0KDUWI8HAOEWKLK9rGnsXZXn4C9DSdS6A0000]--></g></svg>