<svg xmlns="http://www.w3.org/2000/svg" xmlns:xlink="http://www.w3.org/1999/xlink" contentStyleType="text/css" height="809px" preserveAspectRatio="none" style="width:1331px;height:809px;background:#FFFFFF;" version="1.1" viewBox="0 0 1331 809" width="1331px" zoomAndPan="magnify"><defs/><g><!--entity need--><g id="elem_need"><path d="M720,80 L720,185.4453 A2.5,2.5 0 0 0 722.5,187.9453 L847.1758,187.9453 A2.5,2.5 0 0 0 849.6758,185.4453 L849.6758,87.5 L839.6758,77.5 L722.5,77.5 A2.5,2.5 0 0 0 720,80 " fill="none" style="stroke:#212121;stroke-width:0.5;"/><path d="M839.6758,77.5 L839.6758,85 A2.5,2.5 0 0 0 842.1758,87.5 L849.6758,87.5 " fill="none" style="stroke:#212121;stroke-width:0.5;"/><text fill="#212121" font-family="sans-serif" font-size="12" font-style="italic" lengthAdjust="spacing" textLength="65.3613" x="752.1572" y="100.4492">&#171;Comment&#187;</text><text fill="#212121" font-family="sans-serif" font-size="14" lengthAdjust="spacing" textLength="67.6758" x="751" y="118.5684">1.&#21019;&#24314;&#35282;&#33394;</text><text fill="#212121" font-family="sans-serif" font-size="14" lengthAdjust="spacing" textLength="95.6758" x="737" y="137.1895">2.&#26356;&#26032;&#35282;&#33394;&#20449;&#24687;</text><text fill="#212121" font-family="sans-serif" font-size="14" lengthAdjust="spacing" textLength="109.6758" x="730" y="155.8105">3.&#26356;&#26032;&#35282;&#33394;&#26435;&#38480;&#38598;</text><text fill="#212121" font-family="sans-serif" font-size="14" lengthAdjust="spacing" textLength="67.6758" x="751" y="174.4316">4.&#21024;&#38500;&#35282;&#33394;</text></g><!--entity CreateRole--><g id="elem_CreateRole"><path d="M6,8.5 L6,256.293 A2.5,2.5 0 0 0 8.5,258.793 L157.0654,258.793 A2.5,2.5 0 0 0 159.5654,256.293 L159.5654,16 L149.5654,6 L8.5,6 A2.5,2.5 0 0 0 6,8.5 " fill="#AEC6CF" style="stroke:#212121;stroke-width:0.5;"/><path d="M149.5654,6 L149.5654,13.5 A2.5,2.5 0 0 0 152.0654,16 L159.5654,16 " fill="#AEC6CF" style="stroke:#212121;stroke-width:0.5;"/><text fill="#212121" font-family="sans-serif" font-size="12" font-style="italic" lengthAdjust="spacing" textLength="68.7012" x="48.4321" y="28.9492">&#171;Command&#187;</text><text fill="#212121" font-family="sans-serif" font-size="14" lengthAdjust="spacing" textLength="56" x="54.7827" y="47.0684">&#21019;&#24314;&#35282;&#33394;</text><text fill="#212121" font-family="sans-serif" font-size="14" lengthAdjust="spacing" textLength="42" x="57.7827" y="84.3105">&#31649;&#29702;&#21592;</text><line style="stroke:#212121;stroke-width:1.0;" x1="7" x2="61.7827" y1="59.8926" y2="59.8926"/><text fill="#212121" font-family="sans-serif" font-size="14" lengthAdjust="spacing" textLength="42" x="61.7827" y="65.1895">&#35302;&#21457;&#32773;</text><line style="stroke:#212121;stroke-width:1.0;" x1="103.7827" x2="158.5654" y1="59.8926" y2="59.8926"/><text fill="#212121" font-family="sans-serif" font-size="14" lengthAdjust="spacing" textLength="42" x="58.7827" y="125.5527">&#35282;&#33394;&#21517;</text><text fill="#212121" font-family="sans-serif" font-size="14" lengthAdjust="spacing" textLength="56" x="51.7827" y="144.1738">&#35282;&#33394;&#25551;&#36848;</text><text fill="#212121" font-family="sans-serif" font-size="14" lengthAdjust="spacing" textLength="70" x="44.7827" y="162.7949">&#35282;&#33394;&#26435;&#38480;&#38598;</text><line style="stroke:#212121;stroke-width:1.0;" x1="7" x2="68.7827" y1="101.1348" y2="101.1348"/><text fill="#212121" font-family="sans-serif" font-size="14" lengthAdjust="spacing" textLength="28" x="68.7827" y="106.4316">&#23646;&#24615;</text><line style="stroke:#212121;stroke-width:1.0;" x1="96.7827" x2="158.5654" y1="101.1348" y2="101.1348"/><text fill="#212121" font-family="sans-serif" font-size="14" lengthAdjust="spacing" textLength="11.6758" x="23" y="204.0371">1.</text><text fill="#212121" font-family="sans-serif" font-size="14" lengthAdjust="spacing" textLength="3.8896" x="34.6758" y="204.0371">&#160;</text><text fill="#212121" font-family="sans-serif" font-size="14" lengthAdjust="spacing" textLength="98" x="38.5654" y="204.0371">&#35282;&#33394;&#21517;&#19981;&#33021;&#20026;&#31354;</text><text fill="#212121" font-family="sans-serif" font-size="14" lengthAdjust="spacing" textLength="11.6758" x="16" y="222.6582">2.</text><text fill="#212121" font-family="sans-serif" font-size="14" lengthAdjust="spacing" textLength="3.8896" x="27.6758" y="222.6582">&#160;</text><text fill="#212121" font-family="sans-serif" font-size="14" lengthAdjust="spacing" textLength="112" x="31.5654" y="222.6582">&#35282;&#33394;&#25551;&#36848;&#19981;&#33021;&#20026;&#31354;</text><text fill="#212121" font-family="sans-serif" font-size="14" lengthAdjust="spacing" textLength="11.6758" x="23" y="241.2793">3.</text><text fill="#212121" font-family="sans-serif" font-size="14" lengthAdjust="spacing" textLength="3.8896" x="34.6758" y="241.2793">&#160;</text><text fill="#212121" font-family="sans-serif" font-size="14" lengthAdjust="spacing" textLength="98" x="38.5654" y="241.2793">&#35282;&#33394;&#21517;&#24517;&#39035;&#21807;&#19968;</text><line style="stroke:#212121;stroke-width:1.0;" x1="7" x2="68.7827" y1="179.6191" y2="179.6191"/><text fill="#212121" font-family="sans-serif" font-size="14" lengthAdjust="spacing" textLength="28" x="68.7827" y="184.916">&#35268;&#21017;</text><line style="stroke:#212121;stroke-width:1.0;" x1="96.7827" x2="158.5654" y1="179.6191" y2="179.6191"/></g><!--entity UpdateRoleInfo--><g id="elem_UpdateRoleInfo"><path d="M195,18 L195,247.1719 A2.5,2.5 0 0 0 197.5,249.6719 L332.0654,249.6719 A2.5,2.5 0 0 0 334.5654,247.1719 L334.5654,25.5 L324.5654,15.5 L197.5,15.5 A2.5,2.5 0 0 0 195,18 " fill="#AEC6CF" style="stroke:#212121;stroke-width:0.5;"/><path d="M324.5654,15.5 L324.5654,23 A2.5,2.5 0 0 0 327.0654,25.5 L334.5654,25.5 " fill="#AEC6CF" style="stroke:#212121;stroke-width:0.5;"/><text fill="#212121" font-family="sans-serif" font-size="12" font-style="italic" lengthAdjust="spacing" textLength="68.7012" x="230.4321" y="38.4492">&#171;Command&#187;</text><text fill="#212121" font-family="sans-serif" font-size="14" lengthAdjust="spacing" textLength="84" x="222.7827" y="56.5684">&#26356;&#26032;&#35282;&#33394;&#20449;&#24687;</text><text fill="#212121" font-family="sans-serif" font-size="14" lengthAdjust="spacing" textLength="42" x="239.7827" y="93.8105">&#31649;&#29702;&#21592;</text><line style="stroke:#212121;stroke-width:1.0;" x1="196" x2="243.7827" y1="69.3926" y2="69.3926"/><text fill="#212121" font-family="sans-serif" font-size="14" lengthAdjust="spacing" textLength="42" x="243.7827" y="74.6895">&#35302;&#21457;&#32773;</text><line style="stroke:#212121;stroke-width:1.0;" x1="285.7827" x2="333.5654" y1="69.3926" y2="69.3926"/><text fill="#212121" font-family="sans-serif" font-size="14" lengthAdjust="spacing" textLength="42" x="240.7827" y="135.0527">&#35282;&#33394;ID</text><text fill="#212121" font-family="sans-serif" font-size="14" lengthAdjust="spacing" textLength="42" x="240.7827" y="153.6738">&#35282;&#33394;&#21517;</text><text fill="#212121" font-family="sans-serif" font-size="14" lengthAdjust="spacing" textLength="56" x="233.7827" y="172.2949">&#35282;&#33394;&#25551;&#36848;</text><line style="stroke:#212121;stroke-width:1.0;" x1="196" x2="250.7827" y1="110.6348" y2="110.6348"/><text fill="#212121" font-family="sans-serif" font-size="14" lengthAdjust="spacing" textLength="28" x="250.7827" y="115.9316">&#23646;&#24615;</text><line style="stroke:#212121;stroke-width:1.0;" x1="278.7827" x2="333.5654" y1="110.6348" y2="110.6348"/><text fill="#212121" font-family="sans-serif" font-size="14" lengthAdjust="spacing" textLength="11.6758" x="205" y="213.5371">1.</text><text fill="#212121" font-family="sans-serif" font-size="14" lengthAdjust="spacing" textLength="3.8896" x="216.6758" y="213.5371">&#160;</text><text fill="#212121" font-family="sans-serif" font-size="14" lengthAdjust="spacing" textLength="98" x="220.5654" y="213.5371">&#35282;&#33394;&#21517;&#19981;&#33021;&#20026;&#31354;</text><text fill="#212121" font-family="sans-serif" font-size="14" lengthAdjust="spacing" textLength="11.6758" x="212" y="232.1582">2.</text><text fill="#212121" font-family="sans-serif" font-size="14" lengthAdjust="spacing" textLength="3.8896" x="223.6758" y="232.1582">&#160;</text><text fill="#212121" font-family="sans-serif" font-size="14" lengthAdjust="spacing" textLength="84" x="227.5654" y="232.1582">&#35282;&#33394;&#24517;&#39035;&#23384;&#22312;</text><line style="stroke:#212121;stroke-width:1.0;" x1="196" x2="250.7827" y1="189.1191" y2="189.1191"/><text fill="#212121" font-family="sans-serif" font-size="14" lengthAdjust="spacing" textLength="28" x="250.7827" y="194.416">&#35268;&#21017;</text><line style="stroke:#212121;stroke-width:1.0;" x1="278.7827" x2="333.5654" y1="189.1191" y2="189.1191"/></g><!--entity UpdateRolePermissions--><g id="elem_UpdateRolePermissions"><path d="M370,36.5 L370,228.4297 A2.5,2.5 0 0 0 372.5,230.9297 L493.0654,230.9297 A2.5,2.5 0 0 0 495.5654,228.4297 L495.5654,44 L485.5654,34 L372.5,34 A2.5,2.5 0 0 0 370,36.5 " fill="#AEC6CF" style="stroke:#212121;stroke-width:0.5;"/><path d="M485.5654,34 L485.5654,41.5 A2.5,2.5 0 0 0 488.0654,44 L495.5654,44 " fill="#AEC6CF" style="stroke:#212121;stroke-width:0.5;"/><text fill="#212121" font-family="sans-serif" font-size="12" font-style="italic" lengthAdjust="spacing" textLength="68.7012" x="398.4321" y="56.9492">&#171;Command&#187;</text><text fill="#212121" font-family="sans-serif" font-size="14" lengthAdjust="spacing" textLength="98" x="383.7827" y="75.0684">&#26356;&#26032;&#35282;&#33394;&#26435;&#38480;&#38598;</text><text fill="#212121" font-family="sans-serif" font-size="14" lengthAdjust="spacing" textLength="42" x="407.7827" y="112.3105">&#31649;&#29702;&#21592;</text><line style="stroke:#212121;stroke-width:1.0;" x1="371" x2="411.7827" y1="87.8926" y2="87.8926"/><text fill="#212121" font-family="sans-serif" font-size="14" lengthAdjust="spacing" textLength="42" x="411.7827" y="93.1895">&#35302;&#21457;&#32773;</text><line style="stroke:#212121;stroke-width:1.0;" x1="453.7827" x2="494.5654" y1="87.8926" y2="87.8926"/><text fill="#212121" font-family="sans-serif" font-size="14" lengthAdjust="spacing" textLength="42" x="408.7827" y="153.5527">&#35282;&#33394;ID</text><text fill="#212121" font-family="sans-serif" font-size="14" lengthAdjust="spacing" textLength="42" x="408.7827" y="172.1738">&#26435;&#38480;&#38598;</text><line style="stroke:#212121;stroke-width:1.0;" x1="371" x2="418.7827" y1="129.1348" y2="129.1348"/><text fill="#212121" font-family="sans-serif" font-size="14" lengthAdjust="spacing" textLength="28" x="418.7827" y="134.4316">&#23646;&#24615;</text><line style="stroke:#212121;stroke-width:1.0;" x1="446.7827" x2="494.5654" y1="129.1348" y2="129.1348"/><text fill="#212121" font-family="sans-serif" font-size="14" lengthAdjust="spacing" textLength="11.6758" x="380" y="213.416">1.</text><text fill="#212121" font-family="sans-serif" font-size="14" lengthAdjust="spacing" textLength="3.8896" x="391.6758" y="213.416">&#160;</text><text fill="#212121" font-family="sans-serif" font-size="14" lengthAdjust="spacing" textLength="84" x="395.5654" y="213.416">&#35282;&#33394;&#24517;&#39035;&#23384;&#22312;</text><line style="stroke:#212121;stroke-width:1.0;" x1="371" x2="418.7827" y1="188.998" y2="188.998"/><text fill="#212121" font-family="sans-serif" font-size="14" lengthAdjust="spacing" textLength="28" x="418.7827" y="194.2949">&#35268;&#21017;</text><line style="stroke:#212121;stroke-width:1.0;" x1="446.7827" x2="494.5654" y1="188.998" y2="188.998"/></g><!--entity DeleteRole--><g id="elem_DeleteRole"><path d="M531,36.5 L531,228.4297 A2.5,2.5 0 0 0 533.5,230.9297 L682.0654,230.9297 A2.5,2.5 0 0 0 684.5654,228.4297 L684.5654,44 L674.5654,34 L533.5,34 A2.5,2.5 0 0 0 531,36.5 " fill="#AEC6CF" style="stroke:#212121;stroke-width:0.5;"/><path d="M674.5654,34 L674.5654,41.5 A2.5,2.5 0 0 0 677.0654,44 L684.5654,44 " fill="#AEC6CF" style="stroke:#212121;stroke-width:0.5;"/><text fill="#212121" font-family="sans-serif" font-size="12" font-style="italic" lengthAdjust="spacing" textLength="68.7012" x="573.4321" y="56.9492">&#171;Command&#187;</text><text fill="#212121" font-family="sans-serif" font-size="14" lengthAdjust="spacing" textLength="56" x="579.7827" y="75.0684">&#21024;&#38500;&#35282;&#33394;</text><text fill="#212121" font-family="sans-serif" font-size="14" lengthAdjust="spacing" textLength="42" x="582.7827" y="112.3105">&#31649;&#29702;&#21592;</text><line style="stroke:#212121;stroke-width:1.0;" x1="532" x2="586.7827" y1="87.8926" y2="87.8926"/><text fill="#212121" font-family="sans-serif" font-size="14" lengthAdjust="spacing" textLength="42" x="586.7827" y="93.1895">&#35302;&#21457;&#32773;</text><line style="stroke:#212121;stroke-width:1.0;" x1="628.7827" x2="683.5654" y1="87.8926" y2="87.8926"/><text fill="#212121" font-family="sans-serif" font-size="14" lengthAdjust="spacing" textLength="42" x="583.7827" y="153.5527">&#35282;&#33394;ID</text><line style="stroke:#212121;stroke-width:1.0;" x1="532" x2="593.7827" y1="129.1348" y2="129.1348"/><text fill="#212121" font-family="sans-serif" font-size="14" lengthAdjust="spacing" textLength="28" x="593.7827" y="134.4316">&#23646;&#24615;</text><line style="stroke:#212121;stroke-width:1.0;" x1="621.7827" x2="683.5654" y1="129.1348" y2="129.1348"/><text fill="#212121" font-family="sans-serif" font-size="14" lengthAdjust="spacing" textLength="11.6758" x="555" y="194.7949">1.</text><text fill="#212121" font-family="sans-serif" font-size="14" lengthAdjust="spacing" textLength="3.8896" x="566.6758" y="194.7949">&#160;</text><text fill="#212121" font-family="sans-serif" font-size="14" lengthAdjust="spacing" textLength="84" x="570.5654" y="194.7949">&#35282;&#33394;&#24517;&#39035;&#23384;&#22312;</text><text fill="#212121" font-family="sans-serif" font-size="14" lengthAdjust="spacing" textLength="11.6758" x="541" y="213.416">2.</text><text fill="#212121" font-family="sans-serif" font-size="14" lengthAdjust="spacing" textLength="3.8896" x="552.6758" y="213.416">&#160;</text><text fill="#212121" font-family="sans-serif" font-size="14" lengthAdjust="spacing" textLength="112" x="556.5654" y="213.416">&#35282;&#33394;&#26410;&#34987;&#29992;&#25143;&#20351;&#29992;</text><line style="stroke:#212121;stroke-width:1.0;" x1="532" x2="593.7827" y1="170.377" y2="170.377"/><text fill="#212121" font-family="sans-serif" font-size="14" lengthAdjust="spacing" textLength="28" x="593.7827" y="175.6738">&#35268;&#21017;</text><line style="stroke:#212121;stroke-width:1.0;" x1="621.7827" x2="683.5654" y1="170.377" y2="170.377"/></g><!--entity Role--><g id="elem_Role"><path d="M287,321.5 L287,565.293 A2.5,2.5 0 0 0 289.5,567.793 L408.5,567.793 A2.5,2.5 0 0 0 411,565.293 L411,329 L401,319 L289.5,319 A2.5,2.5 0 0 0 287,321.5 " fill="#FDFD9D" style="stroke:#212121;stroke-width:0.5;"/><path d="M401,319 L401,326.5 A2.5,2.5 0 0 0 403.5,329 L411,329 " fill="#FDFD9D" style="stroke:#212121;stroke-width:0.5;"/><text fill="#212121" font-family="sans-serif" font-size="12" font-style="italic" lengthAdjust="spacing" textLength="68.7246" x="314.6377" y="341.9492">&#171;Aggregate&#187;</text><text fill="#212121" font-family="sans-serif" font-size="14" lengthAdjust="spacing" textLength="28" x="335" y="360.0684">&#35282;&#33394;</text><text fill="#212121" font-family="sans-serif" font-size="14" lengthAdjust="spacing" textLength="14" x="339" y="397.3105">ID</text><text fill="#212121" font-family="sans-serif" font-size="14" lengthAdjust="spacing" textLength="28" x="332" y="415.9316">&#21517;&#31216;</text><text fill="#212121" font-family="sans-serif" font-size="14" lengthAdjust="spacing" textLength="28" x="332" y="434.5527">&#25551;&#36848;</text><text fill="#212121" font-family="sans-serif" font-size="14" lengthAdjust="spacing" textLength="56" x="318" y="453.1738">&#21019;&#24314;&#26102;&#38388;</text><text fill="#212121" font-family="sans-serif" font-size="14" lengthAdjust="spacing" textLength="42" x="325" y="471.7949">&#26435;&#38480;&#38598;</text><line style="stroke:#212121;stroke-width:1.0;" x1="288" x2="335" y1="372.8926" y2="372.8926"/><text fill="#212121" font-family="sans-serif" font-size="14" lengthAdjust="spacing" textLength="28" x="335" y="378.1895">&#23646;&#24615;</text><line style="stroke:#212121;stroke-width:1.0;" x1="363" x2="410" y1="372.8926" y2="372.8926"/><text fill="#212121" font-family="sans-serif" font-size="14" lengthAdjust="spacing" textLength="84" x="304" y="513.0371">&#26356;&#26032;&#35282;&#33394;&#20449;&#24687;</text><text fill="#212121" font-family="sans-serif" font-size="14" lengthAdjust="spacing" textLength="98" x="297" y="531.6582">&#26356;&#26032;&#35282;&#33394;&#26435;&#38480;&#38598;</text><text fill="#212121" font-family="sans-serif" font-size="14" lengthAdjust="spacing" textLength="56" x="318" y="550.2793">&#21024;&#38500;&#35282;&#33394;</text><line style="stroke:#212121;stroke-width:1.0;" x1="288" x2="335" y1="488.6191" y2="488.6191"/><text fill="#212121" font-family="sans-serif" font-size="14" lengthAdjust="spacing" textLength="28" x="335" y="493.916">&#34892;&#20026;</text><line style="stroke:#212121;stroke-width:1.0;" x1="363" x2="410" y1="488.6191" y2="488.6191"/></g><!--entity RolePermission--><g id="elem_RolePermission"><path d="M446.5,379.5 L446.5,507.5664 A2.5,2.5 0 0 0 449,510.0664 L532.7246,510.0664 A2.5,2.5 0 0 0 535.2246,507.5664 L535.2246,387 L525.2246,377 L449,377 A2.5,2.5 0 0 0 446.5,379.5 " fill="#FDFD9D" style="stroke:#212121;stroke-width:0.5;"/><path d="M525.2246,377 L525.2246,384.5 A2.5,2.5 0 0 0 527.7246,387 L535.2246,387 " fill="#FDFD9D" style="stroke:#212121;stroke-width:0.5;"/><text fill="#212121" font-family="sans-serif" font-size="12" font-style="italic" lengthAdjust="spacing" textLength="68.7246" x="456.5" y="399.9492">&#171;Aggregate&#187;</text><text fill="#212121" font-family="sans-serif" font-size="14" lengthAdjust="spacing" textLength="56" x="462.8623" y="418.0684">&#35282;&#33394;&#26435;&#38480;</text><text fill="#212121" font-family="sans-serif" font-size="14" lengthAdjust="spacing" textLength="14" x="480.8623" y="455.3105">ID</text><text fill="#212121" font-family="sans-serif" font-size="14" lengthAdjust="spacing" textLength="42" x="466.8623" y="473.9316">&#26435;&#38480;&#30721;</text><text fill="#212121" font-family="sans-serif" font-size="14" lengthAdjust="spacing" textLength="56" x="459.8623" y="492.5527">&#26435;&#38480;&#22791;&#27880;</text><line style="stroke:#212121;stroke-width:1.0;" x1="447.5" x2="476.8623" y1="430.8926" y2="430.8926"/><text fill="#212121" font-family="sans-serif" font-size="14" lengthAdjust="spacing" textLength="28" x="476.8623" y="436.1895">&#23646;&#24615;</text><line style="stroke:#212121;stroke-width:1.0;" x1="504.8623" x2="534.2246" y1="430.8926" y2="430.8926"/></g><!--entity UpdatedRolePermissions--><g id="elem_UpdatedRolePermissions"><path d="M152,639.5 L152,790.1875 A2.5,2.5 0 0 0 154.5,792.6875 L329.5,792.6875 A2.5,2.5 0 0 0 332,790.1875 L332,647 L322,637 L154.5,637 A2.5,2.5 0 0 0 152,639.5 " fill="#FFCB81" style="stroke:#212121;stroke-width:0.5;"/><path d="M322,637 L322,644.5 A2.5,2.5 0 0 0 324.5,647 L332,647 " fill="#FFCB81" style="stroke:#212121;stroke-width:0.5;"/><text fill="#212121" font-family="sans-serif" font-size="12" font-style="italic" lengthAdjust="spacing" textLength="85.3828" x="199.3086" y="659.9492">&#171;DomainEvent&#187;</text><text fill="#212121" font-family="sans-serif" font-size="14" lengthAdjust="spacing" textLength="112" x="186" y="678.0684">&#24050;&#26356;&#26032;&#35282;&#33394;&#26435;&#38480;&#38598;</text><text fill="#212121" font-family="sans-serif" font-size="14" lengthAdjust="spacing" textLength="42" x="218" y="715.3105">&#35282;&#33394;ID</text><text fill="#212121" font-family="sans-serif" font-size="14" lengthAdjust="spacing" textLength="70" x="204" y="733.9316">&#35282;&#33394;&#26435;&#38480;&#38598;</text><line style="stroke:#212121;stroke-width:1.0;" x1="153" x2="228" y1="690.8926" y2="690.8926"/><text fill="#212121" font-family="sans-serif" font-size="14" lengthAdjust="spacing" textLength="28" x="228" y="696.1895">&#23646;&#24615;</text><line style="stroke:#212121;stroke-width:1.0;" x1="256" x2="331" y1="690.8926" y2="690.8926"/><text fill="#212121" font-family="sans-serif" font-size="14" lengthAdjust="spacing" textLength="154" x="162" y="775.1738">&#25317;&#26377;&#35813;&#35282;&#33394;&#30340;&#31649;&#29702;&#21592;&#29992;&#25143;</text><line style="stroke:#212121;stroke-width:1.0;" x1="153" x2="221" y1="750.7559" y2="750.7559"/><text fill="#212121" font-family="sans-serif" font-size="14" lengthAdjust="spacing" textLength="42" x="221" y="756.0527">&#30417;&#21548;&#32773;</text><line style="stroke:#212121;stroke-width:1.0;" x1="263" x2="331" y1="750.7559" y2="750.7559"/></g><!--entity UpdatedRoleInfo--><g id="elem_UpdatedRoleInfo"><path d="M367,630.5 L367,799.8086 A2.5,2.5 0 0 0 369.5,802.3086 L544.5,802.3086 A2.5,2.5 0 0 0 547,799.8086 L547,638 L537,628 L369.5,628 A2.5,2.5 0 0 0 367,630.5 " fill="#FFCB81" style="stroke:#212121;stroke-width:0.5;"/><path d="M537,628 L537,635.5 A2.5,2.5 0 0 0 539.5,638 L547,638 " fill="#FFCB81" style="stroke:#212121;stroke-width:0.5;"/><text fill="#212121" font-family="sans-serif" font-size="12" font-style="italic" lengthAdjust="spacing" textLength="85.3828" x="414.3086" y="650.9492">&#171;DomainEvent&#187;</text><text fill="#212121" font-family="sans-serif" font-size="14" lengthAdjust="spacing" textLength="98" x="408" y="669.0684">&#24050;&#26356;&#26032;&#35282;&#33394;&#20449;&#24687;</text><text fill="#212121" font-family="sans-serif" font-size="14" lengthAdjust="spacing" textLength="42" x="433" y="706.3105">&#35282;&#33394;ID</text><text fill="#212121" font-family="sans-serif" font-size="14" lengthAdjust="spacing" textLength="42" x="433" y="724.9316">&#35282;&#33394;&#21517;</text><text fill="#212121" font-family="sans-serif" font-size="14" lengthAdjust="spacing" textLength="56" x="426" y="743.5527">&#35282;&#33394;&#25551;&#36848;</text><line style="stroke:#212121;stroke-width:1.0;" x1="368" x2="443" y1="681.8926" y2="681.8926"/><text fill="#212121" font-family="sans-serif" font-size="14" lengthAdjust="spacing" textLength="28" x="443" y="687.1895">&#23646;&#24615;</text><line style="stroke:#212121;stroke-width:1.0;" x1="471" x2="546" y1="681.8926" y2="681.8926"/><text fill="#212121" font-family="sans-serif" font-size="14" lengthAdjust="spacing" textLength="154" x="377" y="784.7949">&#25317;&#26377;&#35813;&#35282;&#33394;&#30340;&#31649;&#29702;&#21592;&#29992;&#25143;</text><line style="stroke:#212121;stroke-width:1.0;" x1="368" x2="436" y1="760.377" y2="760.377"/><text fill="#212121" font-family="sans-serif" font-size="14" lengthAdjust="spacing" textLength="42" x="436" y="765.6738">&#30417;&#21548;&#32773;</text><line style="stroke:#212121;stroke-width:1.0;" x1="478" x2="546" y1="760.377" y2="760.377"/></g><!--entity RoleExistsById--><g id="elem_RoleExistsById"><path d="M885,87 L885,177.8242 A2.5,2.5 0 0 0 887.5,180.3242 L1084.5,180.3242 A2.5,2.5 0 0 0 1087,177.8242 L1087,94.5 L1077,84.5 L887.5,84.5 A2.5,2.5 0 0 0 885,87 " fill="#62D862" style="stroke:#212121;stroke-width:0.5;"/><path d="M1077,84.5 L1077,92 A2.5,2.5 0 0 0 1079.5,94.5 L1087,94.5 " fill="#62D862" style="stroke:#212121;stroke-width:0.5;"/><text fill="#212121" font-family="sans-serif" font-size="12" font-style="italic" lengthAdjust="spacing" textLength="46.0254" x="962.9873" y="107.4492">&#171;Query&#187;</text><text fill="#212121" font-family="sans-serif" font-size="14" lengthAdjust="spacing" textLength="182" x="895" y="125.5684">&#26681;&#25454;&#35282;&#33394;ID&#21028;&#26029;&#35282;&#33394;&#26159;&#21542;&#23384;&#22312;</text><text fill="#212121" font-family="sans-serif" font-size="14" lengthAdjust="spacing" textLength="42" x="962" y="162.8105">&#35282;&#33394;ID</text><line style="stroke:#212121;stroke-width:1.0;" x1="886" x2="972" y1="138.3926" y2="138.3926"/><text fill="#212121" font-family="sans-serif" font-size="14" lengthAdjust="spacing" textLength="28" x="972" y="143.6895">&#23646;&#24615;</text><line style="stroke:#212121;stroke-width:1.0;" x1="1000" x2="1086" y1="138.3926" y2="138.3926"/></g><!--entity RoleExistsByName--><g id="elem_RoleExistsByName"><path d="M1122,87 L1122,177.8242 A2.5,2.5 0 0 0 1124.5,180.3242 L1321.5,180.3242 A2.5,2.5 0 0 0 1324,177.8242 L1324,94.5 L1314,84.5 L1124.5,84.5 A2.5,2.5 0 0 0 1122,87 " fill="#62D862" style="stroke:#212121;stroke-width:0.5;"/><path d="M1314,84.5 L1314,92 A2.5,2.5 0 0 0 1316.5,94.5 L1324,94.5 " fill="#62D862" style="stroke:#212121;stroke-width:0.5;"/><text fill="#212121" font-family="sans-serif" font-size="12" font-style="italic" lengthAdjust="spacing" textLength="46.0254" x="1199.9873" y="107.4492">&#171;Query&#187;</text><text fill="#212121" font-family="sans-serif" font-size="14" lengthAdjust="spacing" textLength="182" x="1132" y="125.5684">&#26681;&#25454;&#35282;&#33394;&#21517;&#21028;&#26029;&#35282;&#33394;&#26159;&#21542;&#23384;&#22312;</text><text fill="#212121" font-family="sans-serif" font-size="14" lengthAdjust="spacing" textLength="42" x="1199" y="162.8105">&#35282;&#33394;&#21517;</text><line style="stroke:#212121;stroke-width:1.0;" x1="1123" x2="1209" y1="138.3926" y2="138.3926"/><text fill="#212121" font-family="sans-serif" font-size="14" lengthAdjust="spacing" textLength="28" x="1209" y="143.6895">&#23646;&#24615;</text><line style="stroke:#212121;stroke-width:1.0;" x1="1237" x2="1323" y1="138.3926" y2="138.3926"/></g><!--entity GetRoleById--><g id="elem_GetRoleById"><path d="M712,398 L712,488.8242 A2.5,2.5 0 0 0 714.5,491.3242 L855.5,491.3242 A2.5,2.5 0 0 0 858,488.8242 L858,405.5 L848,395.5 L714.5,395.5 A2.5,2.5 0 0 0 712,398 " fill="#62D862" style="stroke:#212121;stroke-width:0.5;"/><path d="M848,395.5 L848,403 A2.5,2.5 0 0 0 850.5,405.5 L858,405.5 " fill="#62D862" style="stroke:#212121;stroke-width:0.5;"/><text fill="#212121" font-family="sans-serif" font-size="12" font-style="italic" lengthAdjust="spacing" textLength="46.0254" x="761.9873" y="418.4492">&#171;Query&#187;</text><text fill="#212121" font-family="sans-serif" font-size="14" lengthAdjust="spacing" textLength="126" x="722" y="436.5684">&#26681;&#25454;&#35282;&#33394;ID&#33719;&#21462;&#35282;&#33394;</text><text fill="#212121" font-family="sans-serif" font-size="14" lengthAdjust="spacing" textLength="42" x="761" y="473.8105">&#35282;&#33394;ID</text><line style="stroke:#212121;stroke-width:1.0;" x1="713" x2="771" y1="449.3926" y2="449.3926"/><text fill="#212121" font-family="sans-serif" font-size="14" lengthAdjust="spacing" textLength="28" x="771" y="454.6895">&#23646;&#24615;</text><line style="stroke:#212121;stroke-width:1.0;" x1="799" x2="857" y1="449.3926" y2="449.3926"/></g><!--entity GetRoleByCondition--><g id="elem_GetRoleByCondition"><path d="M893,389 L893,498.4453 A2.5,2.5 0 0 0 895.5,500.9453 L1022.5,500.9453 A2.5,2.5 0 0 0 1025,498.4453 L1025,396.5 L1015,386.5 L895.5,386.5 A2.5,2.5 0 0 0 893,389 " fill="#62D862" style="stroke:#212121;stroke-width:0.5;"/><path d="M1015,386.5 L1015,394 A2.5,2.5 0 0 0 1017.5,396.5 L1025,396.5 " fill="#62D862" style="stroke:#212121;stroke-width:0.5;"/><text fill="#212121" font-family="sans-serif" font-size="12" font-style="italic" lengthAdjust="spacing" textLength="46.0254" x="935.9873" y="409.4492">&#171;Query&#187;</text><text fill="#212121" font-family="sans-serif" font-size="14" lengthAdjust="spacing" textLength="112" x="903" y="427.5684">&#26681;&#25454;&#26465;&#20214;&#33719;&#21462;&#35282;&#33394;</text><text fill="#212121" font-family="sans-serif" font-size="14" lengthAdjust="spacing" textLength="42" x="935" y="464.8105">&#35282;&#33394;&#21517;</text><text fill="#212121" font-family="sans-serif" font-size="14" lengthAdjust="spacing" textLength="56" x="928" y="483.4316">&#35282;&#33394;&#25551;&#36848;</text><line style="stroke:#212121;stroke-width:1.0;" x1="894" x2="945" y1="440.3926" y2="440.3926"/><text fill="#212121" font-family="sans-serif" font-size="14" lengthAdjust="spacing" textLength="28" x="945" y="445.6895">&#23646;&#24615;</text><line style="stroke:#212121;stroke-width:1.0;" x1="973" x2="1024" y1="440.3926" y2="440.3926"/></g><!--entity GetAllRole--><g id="elem_GetAllRole"><path d="M1060,418.5 L1060,468.082 A2.5,2.5 0 0 0 1062.5,470.582 L1161.5,470.582 A2.5,2.5 0 0 0 1164,468.082 L1164,426 L1154,416 L1062.5,416 A2.5,2.5 0 0 0 1060,418.5 " fill="#62D862" style="stroke:#212121;stroke-width:0.5;"/><path d="M1154,416 L1154,423.5 A2.5,2.5 0 0 0 1156.5,426 L1164,426 " fill="#62D862" style="stroke:#212121;stroke-width:0.5;"/><text fill="#212121" font-family="sans-serif" font-size="12" font-style="italic" lengthAdjust="spacing" textLength="46.0254" x="1088.9873" y="438.9492">&#171;Query&#187;</text><text fill="#212121" font-family="sans-serif" font-size="14" lengthAdjust="spacing" textLength="84" x="1070" y="457.0684">&#33719;&#21462;&#25152;&#26377;&#35282;&#33394;</text></g><!--link Role to RolePermission--><g id="link_Role_RolePermission"><path codeLine="25" d="M411.12,443.5 C422.88,443.5 428.63,443.5 440.38,443.5 " fill="none" id="Role-to-RolePermission" style="stroke:#212121;stroke-width:1.0;"/><polygon fill="#212121" points="446.38,443.5,437.38,439.5,441.38,443.5,437.38,447.5,446.38,443.5" style="stroke:#212121;stroke-width:1.0;"/></g><!--link CreateRole to Role--><g id="link_CreateRole_Role"><path codeLine="1" d="M160.1,238.28 C165.73,245.36 171.4,252.33 177,259 C211.8,300.48 249.0746,340.5115 282.5546,375.2215 " fill="none" id="CreateRole-to-Role" style="stroke:#212121;stroke-width:1.0;"/><polygon fill="#212121" points="286.72,379.54,283.3508,370.2853,283.2488,375.9413,277.5929,375.8393,286.72,379.54" style="stroke:#212121;stroke-width:1.0;"/></g><!--link UpdateRoleInfo to Role--><g id="link_UpdateRoleInfo_Role"><path codeLine="2" d="M296.64,249.88 C302.75,272.38 307.6058,290.2302 313.7858,312.9602 " fill="none" id="UpdateRoleInfo-to-Role" style="stroke:#212121;stroke-width:1.0;"/><polygon fill="#212121" points="315.36,318.75,316.8586,309.0158,314.0482,313.9252,309.1389,311.1147,315.36,318.75" style="stroke:#212121;stroke-width:1.0;"/></g><!--link UpdateRolePermissions to Role--><g id="link_UpdateRolePermissions_Role"><path codeLine="3" d="M406.42,231.27 C398.85,259.12 392.084,284.0301 384.154,313.2001 " fill="none" id="UpdateRolePermissions-to-Role" style="stroke:#212121;stroke-width:1.0;"/><polygon fill="#212121" points="382.58,318.99,388.8009,311.3545,383.8917,314.1651,381.0811,309.2559,382.58,318.99" style="stroke:#212121;stroke-width:1.0;"/></g><!--link DeleteRole to Role--><g id="link_DeleteRole_Role"><path codeLine="4" d="M539.87,231 C531.57,240.84 522.88,250.37 514,259 C480.84,291.23 461.04,285.66 429,319 C422.8,325.45 420.5281,327.7309 414.7881,335.0009 " fill="none" id="DeleteRole-to-Role" style="stroke:#212121;stroke-width:1.0;"/><polygon fill="#212121" points="411.07,339.71,419.7865,335.125,414.1684,335.7857,413.5077,330.1676,411.07,339.71" style="stroke:#212121;stroke-width:1.0;"/></g><!--link Role to UpdatedRoleInfo--><g id="link_Role_UpdatedRoleInfo"><path codeLine="6" d="M398.57,568.21 C406.67,588.41 412.6671,603.381 420.2971,622.411 " fill="none" id="Role-to-UpdatedRoleInfo" style="stroke:#212121;stroke-width:1.0;"/><polygon fill="#212121" points="422.53,627.98,422.8934,618.1378,420.6693,623.3391,415.468,621.115,422.53,627.98" style="stroke:#212121;stroke-width:1.0;"/></g><!--link Role to UpdatedRolePermissions--><g id="link_Role_UpdatedRolePermissions"><path codeLine="7" d="M299.88,568.21 C290.6,591.59 283.3535,609.8432 274.8435,631.2832 " fill="none" id="Role-to-UpdatedRolePermissions" style="stroke:#212121;stroke-width:1.0;"/><polygon fill="#212121" points="272.63,636.86,279.6681,629.9706,274.4746,632.2127,272.2325,627.0192,272.63,636.86" style="stroke:#212121;stroke-width:1.0;"/></g><!--SRC=[KyyeAIaejjBNByX9p2ifpStHIyxFrIzEBInDpKjErKt9J4mlIipbKipCIyufJKbLqDEBoSbCYayjIyqhAIx9ByhDp4lNAm3gumAgILC8ytGDZtVsz_LrzGlXSixFpGKgqr3AIqrDKTACvZBKUzen- -dkNI-MJthHkOdBIE_Px2tFfcs0S9_iN_YiSJsNCOhWixdDBsTEU3cxZSi4g7V1ovbBe7fZkHHJyr8oqxWGJWCwF3SnBmNY6hXeIdvkOcOUcY3O-MXYHQavYIMP-NdEBgxe7WeCTGsAHAW4XarH9LGtr17go044CydL6Qm80000]--></g></svg>