<svg xmlns="http://www.w3.org/2000/svg" xmlns:xlink="http://www.w3.org/1999/xlink" contentStyleType="text/css" height="772px" preserveAspectRatio="none" style="width:895px;height:772px;background:#FFFFFF;" version="1.1" viewBox="0 0 895 772" width="895px" zoomAndPan="magnify"><defs/><g><!--entity need--><g id="elem_need"><path d="M6,89 L6,175.8242 A2.5,2.5 0 0 0 8.5,178.3242 L123.0654,178.3242 A2.5,2.5 0 0 0 125.5654,175.8242 L125.5654,96.5 L115.5654,86.5 L8.5,86.5 A2.5,2.5 0 0 0 6,89 " fill="none" style="stroke:#212121;stroke-width:0.5;"/><path d="M115.5654,86.5 L115.5654,94 A2.5,2.5 0 0 0 118.0654,96.5 L125.5654,96.5 " fill="none" style="stroke:#212121;stroke-width:0.5;"/><text fill="#212121" font-family="sans-serif" font-size="12" font-style="italic" lengthAdjust="spacing" textLength="65.3613" x="33.1021" y="109.4492">&#171;Comment&#187;</text><text fill="#212121" font-family="sans-serif" font-size="14" lengthAdjust="spacing" textLength="11.6758" x="30" y="127.5684">1.</text><text fill="#212121" font-family="sans-serif" font-size="14" lengthAdjust="spacing" textLength="3.8896" x="41.6758" y="127.5684">&#160;</text><text fill="#212121" font-family="sans-serif" font-size="14" lengthAdjust="spacing" textLength="56" x="45.5654" y="127.5684">&#21019;&#24314;&#26631;&#31614;</text><text fill="#212121" font-family="sans-serif" font-size="14" lengthAdjust="spacing" textLength="11.6758" x="30" y="146.1895">2.</text><text fill="#212121" font-family="sans-serif" font-size="14" lengthAdjust="spacing" textLength="3.8896" x="41.6758" y="146.1895">&#160;</text><text fill="#212121" font-family="sans-serif" font-size="14" lengthAdjust="spacing" textLength="56" x="45.5654" y="146.1895">&#21024;&#38500;&#26631;&#31614;</text><text fill="#212121" font-family="sans-serif" font-size="14" lengthAdjust="spacing" textLength="11.6758" x="16" y="164.8105">3.</text><text fill="#212121" font-family="sans-serif" font-size="14" lengthAdjust="spacing" textLength="3.8896" x="27.6758" y="164.8105">&#160;</text><text fill="#212121" font-family="sans-serif" font-size="14" lengthAdjust="spacing" textLength="84" x="31.5654" y="164.8105">&#26356;&#26032;&#26631;&#31614;&#20449;&#24687;</text></g><!--entity CreateTag--><g id="elem_CreateTag"><path d="M161,8.5 L161,256.293 A2.5,2.5 0 0 0 163.5,258.793 L312.0654,258.793 A2.5,2.5 0 0 0 314.5654,256.293 L314.5654,16 L304.5654,6 L163.5,6 A2.5,2.5 0 0 0 161,8.5 " fill="#AEC6CF" style="stroke:#212121;stroke-width:0.5;"/><path d="M304.5654,6 L304.5654,13.5 A2.5,2.5 0 0 0 307.0654,16 L314.5654,16 " fill="#AEC6CF" style="stroke:#212121;stroke-width:0.5;"/><text fill="#212121" font-family="sans-serif" font-size="12" font-style="italic" lengthAdjust="spacing" textLength="68.7012" x="203.4321" y="28.9492">&#171;Command&#187;</text><text fill="#212121" font-family="sans-serif" font-size="14" lengthAdjust="spacing" textLength="56" x="209.7827" y="47.0684">&#21019;&#24314;&#26631;&#31614;</text><text fill="#212121" font-family="sans-serif" font-size="14" lengthAdjust="spacing" textLength="42" x="212.7827" y="84.3105">&#31649;&#29702;&#21592;</text><line style="stroke:#212121;stroke-width:1.0;" x1="162" x2="216.7827" y1="59.8926" y2="59.8926"/><text fill="#212121" font-family="sans-serif" font-size="14" lengthAdjust="spacing" textLength="42" x="216.7827" y="65.1895">&#35302;&#21457;&#32773;</text><line style="stroke:#212121;stroke-width:1.0;" x1="258.7827" x2="313.5654" y1="59.8926" y2="59.8926"/><text fill="#212121" font-family="sans-serif" font-size="14" lengthAdjust="spacing" textLength="42" x="213.7827" y="125.5527">&#26631;&#31614;&#21517;</text><text fill="#212121" font-family="sans-serif" font-size="14" lengthAdjust="spacing" textLength="56" x="206.7827" y="144.1738">&#26631;&#31614;&#25551;&#36848;</text><text fill="#212121" font-family="sans-serif" font-size="14" lengthAdjust="spacing" textLength="56" x="206.7827" y="162.7949">&#26631;&#31614;&#22270;&#26631;</text><line style="stroke:#212121;stroke-width:1.0;" x1="162" x2="223.7827" y1="101.1348" y2="101.1348"/><text fill="#212121" font-family="sans-serif" font-size="14" lengthAdjust="spacing" textLength="28" x="223.7827" y="106.4316">&#23646;&#24615;</text><line style="stroke:#212121;stroke-width:1.0;" x1="251.7827" x2="313.5654" y1="101.1348" y2="101.1348"/><text fill="#212121" font-family="sans-serif" font-size="14" lengthAdjust="spacing" textLength="11.6758" x="178" y="204.0371">1.</text><text fill="#212121" font-family="sans-serif" font-size="14" lengthAdjust="spacing" textLength="3.8896" x="189.6758" y="204.0371">&#160;</text><text fill="#212121" font-family="sans-serif" font-size="14" lengthAdjust="spacing" textLength="98" x="193.5654" y="204.0371">&#26631;&#31614;&#21517;&#19981;&#33021;&#20026;&#31354;</text><text fill="#212121" font-family="sans-serif" font-size="14" lengthAdjust="spacing" textLength="11.6758" x="171" y="222.6582">2.</text><text fill="#212121" font-family="sans-serif" font-size="14" lengthAdjust="spacing" textLength="3.8896" x="182.6758" y="222.6582">&#160;</text><text fill="#212121" font-family="sans-serif" font-size="14" lengthAdjust="spacing" textLength="112" x="186.5654" y="222.6582">&#26631;&#31614;&#25551;&#36848;&#19981;&#33021;&#20026;&#31354;</text><text fill="#212121" font-family="sans-serif" font-size="14" lengthAdjust="spacing" textLength="11.6758" x="178" y="241.2793">3.</text><text fill="#212121" font-family="sans-serif" font-size="14" lengthAdjust="spacing" textLength="3.8896" x="189.6758" y="241.2793">&#160;</text><text fill="#212121" font-family="sans-serif" font-size="14" lengthAdjust="spacing" textLength="98" x="193.5654" y="241.2793">&#26631;&#31614;&#21517;&#24517;&#39035;&#21807;&#19968;</text><line style="stroke:#212121;stroke-width:1.0;" x1="162" x2="223.7827" y1="179.6191" y2="179.6191"/><text fill="#212121" font-family="sans-serif" font-size="14" lengthAdjust="spacing" textLength="28" x="223.7827" y="184.916">&#35268;&#21017;</text><line style="stroke:#212121;stroke-width:1.0;" x1="251.7827" x2="313.5654" y1="179.6191" y2="179.6191"/></g><!--entity UpdateTagInfo--><g id="elem_UpdateTagInfo"><path d="M350,8.5 L350,256.293 A2.5,2.5 0 0 0 352.5,258.793 L487.0654,258.793 A2.5,2.5 0 0 0 489.5654,256.293 L489.5654,16 L479.5654,6 L352.5,6 A2.5,2.5 0 0 0 350,8.5 " fill="#AEC6CF" style="stroke:#212121;stroke-width:0.5;"/><path d="M479.5654,6 L479.5654,13.5 A2.5,2.5 0 0 0 482.0654,16 L489.5654,16 " fill="#AEC6CF" style="stroke:#212121;stroke-width:0.5;"/><text fill="#212121" font-family="sans-serif" font-size="12" font-style="italic" lengthAdjust="spacing" textLength="68.7012" x="385.4321" y="28.9492">&#171;Command&#187;</text><text fill="#212121" font-family="sans-serif" font-size="14" lengthAdjust="spacing" textLength="84" x="377.7827" y="47.0684">&#26356;&#26032;&#26631;&#31614;&#20449;&#24687;</text><text fill="#212121" font-family="sans-serif" font-size="14" lengthAdjust="spacing" textLength="42" x="394.7827" y="84.3105">&#31649;&#29702;&#21592;</text><line style="stroke:#212121;stroke-width:1.0;" x1="351" x2="398.7827" y1="59.8926" y2="59.8926"/><text fill="#212121" font-family="sans-serif" font-size="14" lengthAdjust="spacing" textLength="42" x="398.7827" y="65.1895">&#35302;&#21457;&#32773;</text><line style="stroke:#212121;stroke-width:1.0;" x1="440.7827" x2="488.5654" y1="59.8926" y2="59.8926"/><text fill="#212121" font-family="sans-serif" font-size="14" lengthAdjust="spacing" textLength="42" x="395.7827" y="125.5527">&#26631;&#31614;ID</text><text fill="#212121" font-family="sans-serif" font-size="14" lengthAdjust="spacing" textLength="42" x="395.7827" y="144.1738">&#26631;&#31614;&#21517;</text><text fill="#212121" font-family="sans-serif" font-size="14" lengthAdjust="spacing" textLength="56" x="388.7827" y="162.7949">&#26631;&#31614;&#25551;&#36848;</text><text fill="#212121" font-family="sans-serif" font-size="14" lengthAdjust="spacing" textLength="56" x="388.7827" y="181.416">&#26631;&#31614;&#22270;&#26631;</text><line style="stroke:#212121;stroke-width:1.0;" x1="351" x2="405.7827" y1="101.1348" y2="101.1348"/><text fill="#212121" font-family="sans-serif" font-size="14" lengthAdjust="spacing" textLength="28" x="405.7827" y="106.4316">&#23646;&#24615;</text><line style="stroke:#212121;stroke-width:1.0;" x1="433.7827" x2="488.5654" y1="101.1348" y2="101.1348"/><text fill="#212121" font-family="sans-serif" font-size="14" lengthAdjust="spacing" textLength="11.6758" x="360" y="222.6582">1.</text><text fill="#212121" font-family="sans-serif" font-size="14" lengthAdjust="spacing" textLength="3.8896" x="371.6758" y="222.6582">&#160;</text><text fill="#212121" font-family="sans-serif" font-size="14" lengthAdjust="spacing" textLength="98" x="375.5654" y="222.6582">&#26631;&#31614;&#21517;&#19981;&#33021;&#20026;&#31354;</text><text fill="#212121" font-family="sans-serif" font-size="14" lengthAdjust="spacing" textLength="11.6758" x="367" y="241.2793">2.</text><text fill="#212121" font-family="sans-serif" font-size="14" lengthAdjust="spacing" textLength="3.8896" x="378.6758" y="241.2793">&#160;</text><text fill="#212121" font-family="sans-serif" font-size="14" lengthAdjust="spacing" textLength="84" x="382.5654" y="241.2793">&#26631;&#31614;&#24517;&#39035;&#23384;&#22312;</text><line style="stroke:#212121;stroke-width:1.0;" x1="351" x2="405.7827" y1="198.2402" y2="198.2402"/><text fill="#212121" font-family="sans-serif" font-size="14" lengthAdjust="spacing" textLength="28" x="405.7827" y="203.5371">&#35268;&#21017;</text><line style="stroke:#212121;stroke-width:1.0;" x1="433.7827" x2="488.5654" y1="198.2402" y2="198.2402"/></g><!--entity DeleteTag--><g id="elem_DeleteTag"><path d="M525,36.5 L525,228.4297 A2.5,2.5 0 0 0 527.5,230.9297 L648.0654,230.9297 A2.5,2.5 0 0 0 650.5654,228.4297 L650.5654,44 L640.5654,34 L527.5,34 A2.5,2.5 0 0 0 525,36.5 " fill="#AEC6CF" style="stroke:#212121;stroke-width:0.5;"/><path d="M640.5654,34 L640.5654,41.5 A2.5,2.5 0 0 0 643.0654,44 L650.5654,44 " fill="#AEC6CF" style="stroke:#212121;stroke-width:0.5;"/><text fill="#212121" font-family="sans-serif" font-size="12" font-style="italic" lengthAdjust="spacing" textLength="68.7012" x="553.4321" y="56.9492">&#171;Command&#187;</text><text fill="#212121" font-family="sans-serif" font-size="14" lengthAdjust="spacing" textLength="56" x="559.7827" y="75.0684">&#21024;&#38500;&#26631;&#31614;</text><text fill="#212121" font-family="sans-serif" font-size="14" lengthAdjust="spacing" textLength="42" x="562.7827" y="112.3105">&#31649;&#29702;&#21592;</text><line style="stroke:#212121;stroke-width:1.0;" x1="526" x2="566.7827" y1="87.8926" y2="87.8926"/><text fill="#212121" font-family="sans-serif" font-size="14" lengthAdjust="spacing" textLength="42" x="566.7827" y="93.1895">&#35302;&#21457;&#32773;</text><line style="stroke:#212121;stroke-width:1.0;" x1="608.7827" x2="649.5654" y1="87.8926" y2="87.8926"/><text fill="#212121" font-family="sans-serif" font-size="14" lengthAdjust="spacing" textLength="42" x="563.7827" y="153.5527">&#26631;&#31614;ID</text><line style="stroke:#212121;stroke-width:1.0;" x1="526" x2="573.7827" y1="129.1348" y2="129.1348"/><text fill="#212121" font-family="sans-serif" font-size="14" lengthAdjust="spacing" textLength="28" x="573.7827" y="134.4316">&#23646;&#24615;</text><line style="stroke:#212121;stroke-width:1.0;" x1="601.7827" x2="649.5654" y1="129.1348" y2="129.1348"/><text fill="#212121" font-family="sans-serif" font-size="14" lengthAdjust="spacing" textLength="11.6758" x="535" y="194.7949">1.</text><text fill="#212121" font-family="sans-serif" font-size="14" lengthAdjust="spacing" textLength="3.8896" x="546.6758" y="194.7949">&#160;</text><text fill="#212121" font-family="sans-serif" font-size="14" lengthAdjust="spacing" textLength="84" x="550.5654" y="194.7949">&#26631;&#31614;&#24517;&#39035;&#23384;&#22312;</text><text fill="#212121" font-family="sans-serif" font-size="14" lengthAdjust="spacing" textLength="11.6758" x="535" y="213.416">2.</text><text fill="#212121" font-family="sans-serif" font-size="14" lengthAdjust="spacing" textLength="3.8896" x="546.6758" y="213.416">&#160;</text><text fill="#212121" font-family="sans-serif" font-size="14" lengthAdjust="spacing" textLength="84" x="550.5654" y="213.416">&#26631;&#31614;&#26410;&#34987;&#20351;&#29992;</text><line style="stroke:#212121;stroke-width:1.0;" x1="526" x2="573.7827" y1="170.377" y2="170.377"/><text fill="#212121" font-family="sans-serif" font-size="14" lengthAdjust="spacing" textLength="28" x="573.7827" y="175.6738">&#35268;&#21017;</text><line style="stroke:#212121;stroke-width:1.0;" x1="601.7827" x2="649.5654" y1="170.377" y2="170.377"/></g><!--entity Tag--><g id="elem_Tag"><path d="M365,321.5 L365,528.0508 A2.5,2.5 0 0 0 367.5,530.5508 L472.5,530.5508 A2.5,2.5 0 0 0 475,528.0508 L475,329 L465,319 L367.5,319 A2.5,2.5 0 0 0 365,321.5 " fill="#FDFD9D" style="stroke:#212121;stroke-width:0.5;"/><path d="M465,319 L465,326.5 A2.5,2.5 0 0 0 467.5,329 L475,329 " fill="#FDFD9D" style="stroke:#212121;stroke-width:0.5;"/><text fill="#212121" font-family="sans-serif" font-size="12" font-style="italic" lengthAdjust="spacing" textLength="68.7246" x="385.6377" y="341.9492">&#171;Aggregate&#187;</text><text fill="#212121" font-family="sans-serif" font-size="14" lengthAdjust="spacing" textLength="28" x="406" y="360.0684">&#26631;&#31614;</text><text fill="#212121" font-family="sans-serif" font-size="14" lengthAdjust="spacing" textLength="42" x="396" y="397.3105">&#26631;&#31614;ID</text><text fill="#212121" font-family="sans-serif" font-size="14" lengthAdjust="spacing" textLength="42" x="396" y="415.9316">&#26631;&#31614;&#21517;</text><text fill="#212121" font-family="sans-serif" font-size="14" lengthAdjust="spacing" textLength="56" x="389" y="434.5527">&#26631;&#31614;&#25551;&#36848;</text><text fill="#212121" font-family="sans-serif" font-size="14" lengthAdjust="spacing" textLength="56" x="389" y="453.1738">&#26631;&#31614;&#22270;&#26631;</text><line style="stroke:#212121;stroke-width:1.0;" x1="366" x2="406" y1="372.8926" y2="372.8926"/><text fill="#212121" font-family="sans-serif" font-size="14" lengthAdjust="spacing" textLength="28" x="406" y="378.1895">&#23646;&#24615;</text><line style="stroke:#212121;stroke-width:1.0;" x1="434" x2="474" y1="372.8926" y2="372.8926"/><text fill="#212121" font-family="sans-serif" font-size="14" lengthAdjust="spacing" textLength="84" x="375" y="494.416">&#26356;&#26032;&#26631;&#31614;&#20449;&#24687;</text><text fill="#212121" font-family="sans-serif" font-size="14" lengthAdjust="spacing" textLength="56" x="389" y="513.0371">&#21024;&#38500;&#26631;&#31614;</text><line style="stroke:#212121;stroke-width:1.0;" x1="366" x2="406" y1="469.998" y2="469.998"/><text fill="#212121" font-family="sans-serif" font-size="14" lengthAdjust="spacing" textLength="28" x="406" y="475.2949">&#34892;&#20026;</text><line style="stroke:#212121;stroke-width:1.0;" x1="434" x2="474" y1="469.998" y2="469.998"/></g><!--entity UpdatedTagInfo--><g id="elem_UpdatedTagInfo"><path d="M351,593.5 L351,762.8086 A2.5,2.5 0 0 0 353.5,765.3086 L486.5,765.3086 A2.5,2.5 0 0 0 489,762.8086 L489,601 L479,591 L353.5,591 A2.5,2.5 0 0 0 351,593.5 " fill="#FFCB81" style="stroke:#212121;stroke-width:0.5;"/><path d="M479,591 L479,598.5 A2.5,2.5 0 0 0 481.5,601 L489,601 " fill="#FFCB81" style="stroke:#212121;stroke-width:0.5;"/><text fill="#212121" font-family="sans-serif" font-size="12" font-style="italic" lengthAdjust="spacing" textLength="85.3828" x="377.3086" y="613.9492">&#171;DomainEvent&#187;</text><text fill="#212121" font-family="sans-serif" font-size="14" lengthAdjust="spacing" textLength="98" x="371" y="632.0684">&#24050;&#26356;&#26032;&#26631;&#31614;&#20449;&#24687;</text><text fill="#212121" font-family="sans-serif" font-size="14" lengthAdjust="spacing" textLength="42" x="396" y="669.3105">&#26631;&#31614;&#21517;</text><text fill="#212121" font-family="sans-serif" font-size="14" lengthAdjust="spacing" textLength="56" x="389" y="687.9316">&#26631;&#31614;&#25551;&#36848;</text><text fill="#212121" font-family="sans-serif" font-size="14" lengthAdjust="spacing" textLength="56" x="389" y="706.5527">&#26631;&#31614;&#22270;&#26631;</text><line style="stroke:#212121;stroke-width:1.0;" x1="352" x2="406" y1="644.8926" y2="644.8926"/><text fill="#212121" font-family="sans-serif" font-size="14" lengthAdjust="spacing" textLength="28" x="406" y="650.1895">&#23646;&#24615;</text><line style="stroke:#212121;stroke-width:1.0;" x1="434" x2="488" y1="644.8926" y2="644.8926"/><text fill="#212121" font-family="sans-serif" font-size="14" lengthAdjust="spacing" textLength="112" x="361" y="747.7949">&#25317;&#26377;&#35813;&#26631;&#31614;&#30340;&#25991;&#31456;</text><line style="stroke:#212121;stroke-width:1.0;" x1="352" x2="399" y1="723.377" y2="723.377"/><text fill="#212121" font-family="sans-serif" font-size="14" lengthAdjust="spacing" textLength="42" x="399" y="728.6738">&#30417;&#21548;&#32773;</text><line style="stroke:#212121;stroke-width:1.0;" x1="441" x2="488" y1="723.377" y2="723.377"/></g><!--entity TagExistsByName--><g id="elem_TagExistsByName"><path d="M686,87 L686,177.8242 A2.5,2.5 0 0 0 688.5,180.3242 L885.5,180.3242 A2.5,2.5 0 0 0 888,177.8242 L888,94.5 L878,84.5 L688.5,84.5 A2.5,2.5 0 0 0 686,87 " fill="#62D862" style="stroke:#212121;stroke-width:0.5;"/><path d="M878,84.5 L878,92 A2.5,2.5 0 0 0 880.5,94.5 L888,94.5 " fill="#62D862" style="stroke:#212121;stroke-width:0.5;"/><text fill="#212121" font-family="sans-serif" font-size="12" font-style="italic" lengthAdjust="spacing" textLength="46.0254" x="763.9873" y="107.4492">&#171;Query&#187;</text><text fill="#212121" font-family="sans-serif" font-size="14" lengthAdjust="spacing" textLength="182" x="696" y="125.5684">&#26681;&#25454;&#26631;&#31614;&#21517;&#21028;&#26029;&#26631;&#31614;&#26159;&#21542;&#23384;&#22312;</text><text fill="#212121" font-family="sans-serif" font-size="14" lengthAdjust="spacing" textLength="42" x="763" y="162.8105">&#26631;&#31614;&#21517;</text><line style="stroke:#212121;stroke-width:1.0;" x1="687" x2="773" y1="138.3926" y2="138.3926"/><text fill="#212121" font-family="sans-serif" font-size="14" lengthAdjust="spacing" textLength="28" x="773" y="143.6895">&#23646;&#24615;</text><line style="stroke:#212121;stroke-width:1.0;" x1="801" x2="887" y1="138.3926" y2="138.3926"/></g><!--link CreateTag to Tag--><g id="link_CreateTag_Tag"><path codeLine="1" d="M315.18,256.7 C331.85,283.3 345.9538,305.8159 361.5838,330.7559 " fill="none" id="CreateTag-to-Tag" style="stroke:#212121;stroke-width:1.0;"/><polygon fill="#212121" points="364.77,335.84,363.3801,326.0897,362.1148,331.6033,356.6013,330.338,364.77,335.84" style="stroke:#212121;stroke-width:1.0;"/></g><!--link UpdateTagInfo to Tag--><g id="link_UpdateTagInfo_Tag"><path codeLine="2" d="M420,259.23 C420,279.16 420,293.6 420,312.99 " fill="none" id="UpdateTagInfo-to-Tag" style="stroke:#212121;stroke-width:1.0;"/><polygon fill="#212121" points="420,318.99,424,309.99,420,313.99,416,309.99,420,318.99" style="stroke:#212121;stroke-width:1.0;"/></g><!--link DeleteTag to Tag--><g id="link_DeleteTag_Tag"><path codeLine="3" d="M531.59,231.04 C513.38,262.52 496.2334,292.1758 478.1234,323.4958 " fill="none" id="DeleteTag-to-Tag" style="stroke:#212121;stroke-width:1.0;"/><polygon fill="#212121" points="475.12,328.69,483.0879,322.901,477.6228,324.3615,476.1623,318.8965,475.12,328.69" style="stroke:#212121;stroke-width:1.0;"/></g><!--link Tag to UpdatedTagInfo--><g id="link_Tag_UpdatedTagInfo"><path codeLine="5" d="M420,531.36 C420,551.21 420,565.76 420,584.94 " fill="none" id="Tag-to-UpdatedTagInfo" style="stroke:#212121;stroke-width:1.0;"/><polygon fill="#212121" points="420,590.94,424,581.94,420,585.94,416,581.94,420,590.94" style="stroke:#212121;stroke-width:1.0;"/></g><!--SRC=[KyyeAIaejjBNByX9p2ifpStHIyxFrIzEBInDpKjErKt9J4mlIipbKipCIyufJKbLqDEBoSbCYayjIyqhAIx9ByhDp4lNAm3gumAgILC8ytGDZtVsz_LrzGlXSixFpGKgqr3AIqrDKTACvb800aCzXQSTiv_ktlLiGVlpjVl0OaOWiGKlPov14ZFMKtWsUykpQHiWOa_sBtpMk9uhbainDIybCuqBuIAWUtCJyr8WZe2BfkJd9cRceGc2NOqcLfIQarYIcP_dxEAAxe_0KDUWI8HAO90KLK9rGnsXZXmkC9DSdS6A0000]--></g></svg>